<?xml version="1.0" encoding="UTF-8" standalone="no"?>
<!DOCTYPE svg PUBLIC "-//W3C//DTD SVG 1.1//EN"
 "http://www.w3.org/Graphics/SVG/1.1/DTD/svg11.dtd">
<!-- Generated by graphviz version 15.1.0 (20260618.0150)
 -->
<!-- Pages: 1 -->
<svg width="5852pt" height="317pt"
 viewBox="0.00 0.00 5852.00 317.00" xmlns="http://www.w3.org/2000/svg" xmlns:xlink="http://www.w3.org/1999/xlink">
<g id="graph0" class="graph" transform="scale(1 1) rotate(0) translate(4 312.75)">
<polygon fill="#ffffff" stroke="none" points="-4,4 -4,-312.75 5848,-312.75 5848,4 -4,4"/>
<!-- CN4 -->
<g id="node1" class="node">
<title>CN4</title>
<polygon fill="#ffffff" stroke="black" points="955.25,-261.38 0,-261.38 0,-71.38 955.25,-71.38 955.25,-261.38"/>
<polygon fill="#a0dfff" stroke="none" points="0,-237.62 0,-261.38 955.25,-261.38 955.25,-237.62 0,-237.62"/>
<polygon fill="none" stroke="black" points="0,-237.62 0,-261.38 955.25,-261.38 955.25,-237.62 0,-237.62"/>
<text xml:space="preserve" text-anchor="start" x="464.12" y="-244.62" font-family="Arial" font-size="14.00">CN4</text>
<polygon fill="none" stroke="black" points="0,-213.88 0,-237.62 955.25,-237.62 955.25,-213.88 0,-213.88"/>
<text xml:space="preserve" text-anchor="start" x="361.38" y="-220.88" font-family="Arial" font-size="14.00">BBIA&#45;1 CN4 machine&#45;facing connector</text>
<polygon fill="none" stroke="black" points="0,-190.12 0,-213.88 515.75,-213.88 515.75,-190.12 0,-190.12"/>
<text xml:space="preserve" text-anchor="start" x="65.5" y="-197.12" font-family="Arial" font-size="14.00">wire 231 | SPINDLE_ZERO_SPEED | HOLD &#45; OEM CONFLICT</text>
<polyline fill="none" stroke="black" points="666.25,-213.88 515.75,-213.88 515.75,-190.12 666.25,-190.12"/>
<text xml:space="preserve" text-anchor="start" x="581.25" y="-197.12" font-family="Arial" font-size="14.00">RD</text>
<polyline fill="none" stroke="black" points="666.25,-190.12 809.25,-190.12 809.25,-213.88 666.25,-213.88"/>
<polygon fill="#ff0000" stroke="none" points="733.75,-198 733.75,-206 741.75,-206 741.75,-198 733.75,-198"/>
<polygon fill="none" stroke="black" points="733.75,-198 733.75,-206 741.75,-206 741.75,-198 733.75,-198"/>
<polygon fill="none" stroke="black" points="809.25,-190.12 809.25,-213.88 955.25,-213.88 955.25,-190.12 809.25,-190.12"/>
<text xml:space="preserve" text-anchor="start" x="878.5" y="-197.12" font-family="Arial" font-size="14.00">1</text>
<polygon fill="none" stroke="black" points="0,-166.38 0,-190.12 515.75,-190.12 515.75,-166.38 0,-166.38"/>
<text xml:space="preserve" text-anchor="start" x="125.88" y="-173.38" font-family="Arial" font-size="14.00">wire FA | SPINDLE_FAULT | FIELD VERIFY</text>
<polyline fill="none" stroke="black" points="666.25,-190.12 515.75,-190.12 515.75,-166.38 666.25,-166.38"/>
<text xml:space="preserve" text-anchor="start" x="582" y="-173.38" font-family="Arial" font-size="14.00">YE</text>
<polyline fill="none" stroke="black" points="666.25,-166.38 809.25,-166.38 809.25,-190.12 666.25,-190.12"/>
<polygon fill="#ffff00" stroke="none" points="733.75,-174.25 733.75,-182.25 741.75,-182.25 741.75,-174.25 733.75,-174.25"/>
<polygon fill="none" stroke="black" points="733.75,-174.25 733.75,-182.25 741.75,-182.25 741.75,-174.25 733.75,-174.25"/>
<polygon fill="none" stroke="black" points="809.25,-166.38 809.25,-190.12 955.25,-190.12 955.25,-166.38 809.25,-166.38"/>
<text xml:space="preserve" text-anchor="start" x="878.5" y="-173.38" font-family="Arial" font-size="14.00">3</text>
<polygon fill="none" stroke="black" points="0,-142.62 0,-166.38 515.75,-166.38 515.75,-142.62 0,-142.62"/>
<text xml:space="preserve" text-anchor="start" x="124.38" y="-149.62" font-family="Arial" font-size="14.00">wire SRN | SPINDLE_FWD | FIELD VERIFY</text>
<polyline fill="none" stroke="black" points="666.25,-166.38 515.75,-166.38 515.75,-142.62 666.25,-142.62"/>
<text xml:space="preserve" text-anchor="start" x="582" y="-149.62" font-family="Arial" font-size="14.00">YE</text>
<polyline fill="none" stroke="black" points="666.25,-142.62 809.25,-142.62 809.25,-166.38 666.25,-166.38"/>
<polygon fill="#ffff00" stroke="none" points="733.75,-150.5 733.75,-158.5 741.75,-158.5 741.75,-150.5 733.75,-150.5"/>
<polygon fill="none" stroke="black" points="733.75,-150.5 733.75,-158.5 741.75,-158.5 741.75,-150.5 733.75,-150.5"/>
<polygon fill="none" stroke="black" points="809.25,-142.62 809.25,-166.38 955.25,-166.38 955.25,-142.62 809.25,-142.62"/>
<text xml:space="preserve" text-anchor="start" x="878.5" y="-149.62" font-family="Arial" font-size="14.00">9</text>
<polygon fill="none" stroke="black" points="0,-118.88 0,-142.62 515.75,-142.62 515.75,-118.88 0,-118.88"/>
<text xml:space="preserve" text-anchor="start" x="129.25" y="-125.88" font-family="Arial" font-size="14.00">wire SRI | SPINDLE_REV | FIELD VERIFY</text>
<polyline fill="none" stroke="black" points="666.25,-142.62 515.75,-142.62 515.75,-118.88 666.25,-118.88"/>
<text xml:space="preserve" text-anchor="start" x="582" y="-125.88" font-family="Arial" font-size="14.00">YE</text>
<polyline fill="none" stroke="black" points="666.25,-118.88 809.25,-118.88 809.25,-142.62 666.25,-142.62"/>
<polygon fill="#ffff00" stroke="none" points="733.75,-126.75 733.75,-134.75 741.75,-134.75 741.75,-126.75 733.75,-126.75"/>
<polygon fill="none" stroke="black" points="733.75,-126.75 733.75,-134.75 741.75,-134.75 741.75,-126.75 733.75,-126.75"/>
<polygon fill="none" stroke="black" points="809.25,-118.88 809.25,-142.62 955.25,-142.62 955.25,-118.88 809.25,-118.88"/>
<text xml:space="preserve" text-anchor="start" x="874.75" y="-125.88" font-family="Arial" font-size="14.00">10</text>
<polygon fill="none" stroke="black" points="0,-95.12 0,-118.88 515.75,-118.88 515.75,-95.12 0,-95.12"/>
<text xml:space="preserve" text-anchor="start" x="79.38" y="-102.12" font-family="Arial" font-size="14.00">wire SETA | SPINDLE_ORIENT_ARRIVAL | FIELD VERIFY</text>
<polyline fill="none" stroke="black" points="666.25,-118.88 515.75,-118.88 515.75,-95.12 666.25,-95.12"/>
<text xml:space="preserve" text-anchor="start" x="582" y="-102.12" font-family="Arial" font-size="14.00">YE</text>
<polyline fill="none" stroke="black" points="666.25,-95.12 809.25,-95.12 809.25,-118.88 666.25,-118.88"/>
<polygon fill="#ffff00" stroke="none" points="733.75,-103 733.75,-111 741.75,-111 741.75,-103 733.75,-103"/>
<polygon fill="none" stroke="black" points="733.75,-103 733.75,-111 741.75,-111 741.75,-103 733.75,-103"/>
<polygon fill="none" stroke="black" points="809.25,-95.12 809.25,-118.88 955.25,-118.88 955.25,-95.12 809.25,-95.12"/>
<text xml:space="preserve" text-anchor="start" x="874.75" y="-102.12" font-family="Arial" font-size="14.00">16</text>
<polygon fill="none" stroke="black" points="0,-71.38 0,-95.12 955.25,-95.12 955.25,-71.38 0,-71.38"/>
<text xml:space="preserve" text-anchor="start" x="4" y="-78.38" font-family="Arial" font-size="14.00">PRELIMINARY &#45; NOT RELEASED FOR WIRING. Only Mesa route and candidate pins are shown; see the 320&#45;row Plane A CSV for complete pin accounting.</text>
</g>
<!-- OEM_CONDUCTORS -->
<g id="node4" class="node">
<title>OEM_CONDUCTORS</title>
<polygon fill="#ffffff" stroke="black" points="2190.5,-295.12 1099.25,-295.12 1099.25,-55.62 2190.5,-55.62 2190.5,-295.12"/>
<polygon fill="none" stroke="black" points="1099.25,-271.38 1099.25,-295.12 2190.5,-295.12 2190.5,-271.38 1099.25,-271.38"/>
<text xml:space="preserve" text-anchor="start" x="1575.88" y="-278.38" font-family="Arial" font-size="14.00">OEM_CONDUCTORS</text>
<polygon fill="none" stroke="black" points="1099.25,-247.62 1099.25,-271.38 2190.5,-271.38 2190.5,-247.62 1099.25,-247.62"/>
<text xml:space="preserve" text-anchor="start" x="1540.25" y="-254.62" font-family="Arial" font-size="14.00">Existing OEM conductor segments</text>
<text xml:space="preserve" text-anchor="start" x="1312.75" y="-232.88" font-family="Arial" font-size="14.00"> </text>
<text xml:space="preserve" text-anchor="start" x="1101.25" y="-213.12" font-family="Arial" font-size="14.00">CN4:1:wire 231 | SPINDLE_ZERO_SPEED | HOLD &#45; OEM CONFLICT</text>
<text xml:space="preserve" text-anchor="start" x="1549.25" y="-213.12" font-family="Arial" font-size="14.00"> &#160;&#160;&#160;&#160;1:RD:231 | SPINDLE_ZERO_SPEED &#160;&#160;&#160;</text>
<text xml:space="preserve" text-anchor="start" x="1841.62" y="-213.12" font-family="Arial" font-size="14.00">IR_BOUNDARY:F01:FIELD | SPINDLE_ZERO_SPEED</text>
<polygon fill="#000000" stroke="none" points="1099.25,-206.12 1099.25,-208.12 2190.5,-208.12 2190.5,-206.12 1099.25,-206.12"/>
<polygon fill="#ff0000" stroke="none" points="1099.25,-204.12 1099.25,-206.12 2190.5,-206.12 2190.5,-204.12 1099.25,-204.12"/>
<polygon fill="#000000" stroke="none" points="1099.25,-202.12 1099.25,-204.12 2190.5,-204.12 2190.5,-202.12 1099.25,-202.12"/>
<text xml:space="preserve" text-anchor="start" x="1161.62" y="-187.38" font-family="Arial" font-size="14.00">CN4:3:wire FA | SPINDLE_FAULT | FIELD VERIFY</text>
<text xml:space="preserve" text-anchor="start" x="1578.5" y="-187.38" font-family="Arial" font-size="14.00"> &#160;&#160;&#160;&#160;2:YE:FA | SPINDLE_FAULT &#160;&#160;&#160;</text>
<text xml:space="preserve" text-anchor="start" x="1866.75" y="-187.38" font-family="Arial" font-size="14.00">IR_BOUNDARY:F02:FIELD | SPINDLE_FAULT</text>
<polygon fill="#000000" stroke="none" points="1099.25,-180.38 1099.25,-182.38 2190.5,-182.38 2190.5,-180.38 1099.25,-180.38"/>
<polygon fill="#ffff00" stroke="none" points="1099.25,-178.38 1099.25,-180.38 2190.5,-180.38 2190.5,-178.38 1099.25,-178.38"/>
<polygon fill="#000000" stroke="none" points="1099.25,-176.38 1099.25,-178.38 2190.5,-178.38 2190.5,-176.38 1099.25,-176.38"/>
<text xml:space="preserve" text-anchor="start" x="1160.12" y="-161.62" font-family="Arial" font-size="14.00">CN4:9:wire SRN | SPINDLE_FWD | FIELD VERIFY</text>
<text xml:space="preserve" text-anchor="start" x="1577" y="-161.62" font-family="Arial" font-size="14.00"> &#160;&#160;&#160;&#160;3:YE:SRN | SPINDLE_FWD &#160;&#160;&#160;</text>
<text xml:space="preserve" text-anchor="start" x="1871.62" y="-161.62" font-family="Arial" font-size="14.00">IR_BOUNDARY:F03:FIELD | SPINDLE_FWD</text>
<polygon fill="#000000" stroke="none" points="1099.25,-154.62 1099.25,-156.62 2190.5,-156.62 2190.5,-154.62 1099.25,-154.62"/>
<polygon fill="#ffff00" stroke="none" points="1099.25,-152.62 1099.25,-154.62 2190.5,-154.62 2190.5,-152.62 1099.25,-152.62"/>
<polygon fill="#000000" stroke="none" points="1099.25,-150.62 1099.25,-152.62 2190.5,-152.62 2190.5,-150.62 1099.25,-150.62"/>
<text xml:space="preserve" text-anchor="start" x="1161.25" y="-135.88" font-family="Arial" font-size="14.00">CN4:10:wire SRI | SPINDLE_REV | FIELD VERIFY</text>
<text xml:space="preserve" text-anchor="start" x="1581.88" y="-135.88" font-family="Arial" font-size="14.00"> &#160;&#160;&#160;&#160;4:YE:SRI | SPINDLE_REV &#160;&#160;&#160;</text>
<text xml:space="preserve" text-anchor="start" x="1873.5" y="-135.88" font-family="Arial" font-size="14.00">IR_BOUNDARY:F04:FIELD | SPINDLE_REV</text>
<polygon fill="#000000" stroke="none" points="1099.25,-128.88 1099.25,-130.88 2190.5,-130.88 2190.5,-128.88 1099.25,-128.88"/>
<polygon fill="#ffff00" stroke="none" points="1099.25,-126.88 1099.25,-128.88 2190.5,-128.88 2190.5,-126.88 1099.25,-126.88"/>
<polygon fill="#000000" stroke="none" points="1099.25,-124.88 1099.25,-126.88 2190.5,-126.88 2190.5,-124.88 1099.25,-124.88"/>
<text xml:space="preserve" text-anchor="start" x="1111.38" y="-110.12" font-family="Arial" font-size="14.00">CN4:16:wire SETA | SPINDLE_ORIENT_ARRIVAL | FIELD VERIFY</text>
<text xml:space="preserve" text-anchor="start" x="1532" y="-110.12" font-family="Arial" font-size="14.00"> &#160;&#160;&#160;&#160;5:YE:SETA | SPINDLE_ORIENT_ARRIVAL &#160;&#160;&#160;</text>
<text xml:space="preserve" text-anchor="start" x="1829.25" y="-110.12" font-family="Arial" font-size="14.00">IR_BOUNDARY:F05:FIELD | SPINDLE_ORIENT_ARRIVAL</text>
<polygon fill="#000000" stroke="none" points="1099.25,-103.12 1099.25,-105.12 2190.5,-105.12 2190.5,-103.12 1099.25,-103.12"/>
<polygon fill="#ffff00" stroke="none" points="1099.25,-101.12 1099.25,-103.12 2190.5,-103.12 2190.5,-101.12 1099.25,-101.12"/>
<polygon fill="#000000" stroke="none" points="1099.25,-99.12 1099.25,-101.12 2190.5,-101.12 2190.5,-99.12 1099.25,-99.12"/>
<text xml:space="preserve" text-anchor="start" x="1312.75" y="-84.38" font-family="Arial" font-size="14.00"> </text>
<polygon fill="none" stroke="black" points="1099.25,-55.62 1099.25,-79.38 2190.5,-79.38 2190.5,-55.62 1099.25,-55.62"/>
<text xml:space="preserve" text-anchor="start" x="1425.5" y="-62.62" font-family="Arial" font-size="14.00">Factory jacket identifier shown; length, gauge, and color are not asserted.</text>
</g>
<!-- CN4&#45;&#45;OEM_CONDUCTORS -->
<g id="edge1" class="edge">
<title>CN4:e&#45;&#45;OEM_CONDUCTORS:w</title>
<path fill="none" stroke="#000000" stroke-width="2" d="M955.25,-200C1019.65,-200.04 1035.62,-203.16 1099.25,-203.13"/>
<path fill="none" stroke="#ff0000" stroke-width="2" d="M955.25,-202C1019.27,-202 1035.23,-205.12 1099.25,-205.12"/>
<path fill="none" stroke="#000000" stroke-width="2" d="M955.25,-204C1018.88,-203.96 1034.85,-207.09 1099.25,-207.12"/>
</g>
<!-- CN4&#45;&#45;OEM_CONDUCTORS -->
<g id="edge3" class="edge">
<title>CN4:e&#45;&#45;OEM_CONDUCTORS:w</title>
<path fill="none" stroke="#000000" stroke-width="2" d="M955.25,-176.25C1019.39,-176.25 1035.39,-177.38 1099.25,-177.38"/>
<path fill="none" stroke="#ffff00" stroke-width="2" d="M955.25,-178.25C1019.25,-178.25 1035.25,-179.37 1099.25,-179.38"/>
<path fill="none" stroke="#000000" stroke-width="2" d="M955.25,-180.25C1019.11,-180.25 1035.11,-181.37 1099.25,-181.37"/>
</g>
<!-- CN4&#45;&#45;OEM_CONDUCTORS -->
<g id="edge5" class="edge">
<title>CN4:e&#45;&#45;OEM_CONDUCTORS:w</title>
<path fill="none" stroke="#000000" stroke-width="2" d="M955.25,-152.5C1019.14,-152.5 1035.14,-151.63 1099.25,-151.63"/>
<path fill="none" stroke="#ffff00" stroke-width="2" d="M955.25,-154.5C1019.25,-154.5 1035.25,-153.63 1099.25,-153.62"/>
<path fill="none" stroke="#000000" stroke-width="2" d="M955.25,-156.5C1019.36,-156.5 1035.36,-155.62 1099.25,-155.62"/>
</g>
<!-- CN4&#45;&#45;OEM_CONDUCTORS -->
<g id="edge7" class="edge">
<title>CN4:e&#45;&#45;OEM_CONDUCTORS:w</title>
<path fill="none" stroke="#000000" stroke-width="2" d="M955.25,-128.75C1018.91,-128.78 1034.88,-125.91 1099.25,-125.88"/>
<path fill="none" stroke="#ffff00" stroke-width="2" d="M955.25,-130.75C1019.26,-130.75 1035.24,-127.87 1099.25,-127.88"/>
<path fill="none" stroke="#000000" stroke-width="2" d="M955.25,-132.75C1019.62,-132.72 1035.59,-129.84 1099.25,-129.87"/>
</g>
<!-- CN4&#45;&#45;OEM_CONDUCTORS -->
<g id="edge9" class="edge">
<title>CN4:e&#45;&#45;OEM_CONDUCTORS:w</title>
<path fill="none" stroke="#000000" stroke-width="2" d="M955.25,-105C1018.7,-105.09 1034.63,-100.21 1099.25,-100.13"/>
<path fill="none" stroke="#ffff00" stroke-width="2" d="M955.25,-107C1019.29,-107 1035.21,-102.12 1099.25,-102.12"/>
<path fill="none" stroke="#000000" stroke-width="2" d="M955.25,-109C1019.87,-108.91 1035.8,-104.04 1099.25,-104.12"/>
</g>
<!-- IR_BOUNDARY -->
<g id="node2" class="node">
<title>IR_BOUNDARY</title>
<polygon fill="#ffffff" stroke="black" points="3744.25,-308.75 2334.5,-308.75 2334.5,0 3744.25,0 3744.25,-308.75"/>
<polygon fill="#ffff00" stroke="none" points="2334.5,-285 2334.5,-308.75 3744.25,-308.75 3744.25,-285 2334.5,-285"/>
<polygon fill="none" stroke="black" points="2334.5,-285 2334.5,-308.75 3744.25,-308.75 3744.25,-285 2334.5,-285"/>
<text xml:space="preserve" text-anchor="start" x="2990.25" y="-292" font-family="Arial" font-size="14.00">IR_BOUNDARY</text>
<polygon fill="none" stroke="black" points="2334.5,-261.25 2334.5,-285 3744.25,-285 3744.25,-261.25 2334.5,-261.25"/>
<text xml:space="preserve" text-anchor="start" x="2930.25" y="-268.25" font-family="Arial" font-size="14.00">Required interposing&#45;relay boundary</text>
<polygon fill="none" stroke="black" points="2334.5,-237.5 2334.5,-261.25 2580.15,-261.25 2580.15,-237.5 2334.5,-237.5"/>
<text xml:space="preserve" text-anchor="start" x="2445.7" y="-244.5" font-family="Arial" font-size="14.00">F01</text>
<polygon fill="none" stroke="black" points="2580.15,-237.5 2580.15,-261.25 3029.8,-261.25 3029.8,-237.5 2580.15,-237.5"/>
<text xml:space="preserve" text-anchor="start" x="2701.85" y="-244.5" font-family="Arial" font-size="14.00">FIELD | SPINDLE_ZERO_SPEED</text>
<polyline fill="none" stroke="black" points="3267.95,-261.25 3029.8,-261.25 3029.8,-237.5 3267.95,-237.5"/>
<text xml:space="preserve" text-anchor="start" x="3139.12" y="-244.5" font-family="Arial" font-size="14.00">RD</text>
<polyline fill="none" stroke="black" points="3267.95,-237.5 3498.6,-237.5 3498.6,-261.25 3267.95,-261.25"/>
<polygon fill="#ff0000" stroke="none" points="3379.28,-245.38 3379.28,-253.38 3387.28,-253.38 3387.28,-245.38 3379.28,-245.38"/>
<polygon fill="none" stroke="black" points="3379.28,-245.38 3379.28,-253.38 3387.28,-253.38 3387.28,-245.38 3379.28,-245.38"/>
<polygon fill="none" stroke="black" points="3498.6,-237.5 3498.6,-261.25 3744.25,-261.25 3744.25,-237.5 3498.6,-237.5"/>
<text xml:space="preserve" text-anchor="start" x="3609.8" y="-244.5" font-family="Arial" font-size="14.00">F01</text>
<polygon fill="none" stroke="black" points="2334.5,-213.75 2334.5,-237.5 2580.15,-237.5 2580.15,-213.75 2334.5,-213.75"/>
<text xml:space="preserve" text-anchor="start" x="2443.82" y="-220.75" font-family="Arial" font-size="14.00">M01</text>
<polygon fill="none" stroke="black" points="2580.15,-213.75 2580.15,-237.5 3029.8,-237.5 3029.8,-213.75 2580.15,-213.75"/>
<text xml:space="preserve" text-anchor="start" x="2701.85" y="-220.75" font-family="Arial" font-size="14.00">MESA | SPINDLE_ZERO_SPEED</text>
<polyline fill="none" stroke="black" points="3267.95,-237.5 3029.8,-237.5 3029.8,-213.75 3267.95,-213.75"/>
<text xml:space="preserve" text-anchor="start" x="3139.12" y="-220.75" font-family="Arial" font-size="14.00">RD</text>
<polyline fill="none" stroke="black" points="3267.95,-213.75 3498.6,-213.75 3498.6,-237.5 3267.95,-237.5"/>
<polygon fill="#ff0000" stroke="none" points="3379.28,-221.62 3379.28,-229.62 3387.28,-229.62 3387.28,-221.62 3379.28,-221.62"/>
<polygon fill="none" stroke="black" points="3379.28,-221.62 3379.28,-229.62 3387.28,-229.62 3387.28,-221.62 3379.28,-221.62"/>
<polygon fill="none" stroke="black" points="3498.6,-213.75 3498.6,-237.5 3744.25,-237.5 3744.25,-213.75 3498.6,-213.75"/>
<text xml:space="preserve" text-anchor="start" x="3607.93" y="-220.75" font-family="Arial" font-size="14.00">M01</text>
<polygon fill="none" stroke="black" points="2334.5,-190 2334.5,-213.75 2580.15,-213.75 2580.15,-190 2334.5,-190"/>
<text xml:space="preserve" text-anchor="start" x="2445.7" y="-197" font-family="Arial" font-size="14.00">F02</text>
<polygon fill="none" stroke="black" points="2580.15,-190 2580.15,-213.75 3029.8,-213.75 3029.8,-190 2580.15,-190"/>
<text xml:space="preserve" text-anchor="start" x="2726.97" y="-197" font-family="Arial" font-size="14.00">FIELD | SPINDLE_FAULT</text>
<polyline fill="none" stroke="black" points="3267.95,-213.75 3029.8,-213.75 3029.8,-190 3267.95,-190"/>
<text xml:space="preserve" text-anchor="start" x="3139.88" y="-197" font-family="Arial" font-size="14.00">YE</text>
<polyline fill="none" stroke="black" points="3267.95,-190 3498.6,-190 3498.6,-213.75 3267.95,-213.75"/>
<polygon fill="#ffff00" stroke="none" points="3379.28,-197.88 3379.28,-205.88 3387.28,-205.88 3387.28,-197.88 3379.28,-197.88"/>
<polygon fill="none" stroke="black" points="3379.28,-197.88 3379.28,-205.88 3387.28,-205.88 3387.28,-197.88 3379.28,-197.88"/>
<polygon fill="none" stroke="black" points="3498.6,-190 3498.6,-213.75 3744.25,-213.75 3744.25,-190 3498.6,-190"/>
<text xml:space="preserve" text-anchor="start" x="3609.8" y="-197" font-family="Arial" font-size="14.00">F02</text>
<polygon fill="none" stroke="black" points="2334.5,-166.25 2334.5,-190 2580.15,-190 2580.15,-166.25 2334.5,-166.25"/>
<text xml:space="preserve" text-anchor="start" x="2443.82" y="-173.25" font-family="Arial" font-size="14.00">M02</text>
<polygon fill="none" stroke="black" points="2580.15,-166.25 2580.15,-190 3029.8,-190 3029.8,-166.25 2580.15,-166.25"/>
<text xml:space="preserve" text-anchor="start" x="2726.97" y="-173.25" font-family="Arial" font-size="14.00">MESA | SPINDLE_FAULT</text>
<polyline fill="none" stroke="black" points="3267.95,-190 3029.8,-190 3029.8,-166.25 3267.95,-166.25"/>
<text xml:space="preserve" text-anchor="start" x="3139.88" y="-173.25" font-family="Arial" font-size="14.00">YE</text>
<polyline fill="none" stroke="black" points="3267.95,-166.25 3498.6,-166.25 3498.6,-190 3267.95,-190"/>
<polygon fill="#ffff00" stroke="none" points="3379.28,-174.12 3379.28,-182.12 3387.28,-182.12 3387.28,-174.12 3379.28,-174.12"/>
<polygon fill="none" stroke="black" points="3379.28,-174.12 3379.28,-182.12 3387.28,-182.12 3387.28,-174.12 3379.28,-174.12"/>
<polygon fill="none" stroke="black" points="3498.6,-166.25 3498.6,-190 3744.25,-190 3744.25,-166.25 3498.6,-166.25"/>
<text xml:space="preserve" text-anchor="start" x="3607.93" y="-173.25" font-family="Arial" font-size="14.00">M02</text>
<polygon fill="none" stroke="black" points="2334.5,-142.5 2334.5,-166.25 2580.15,-166.25 2580.15,-142.5 2334.5,-142.5"/>
<text xml:space="preserve" text-anchor="start" x="2445.7" y="-149.5" font-family="Arial" font-size="14.00">F03</text>
<polygon fill="none" stroke="black" points="2580.15,-142.5 2580.15,-166.25 3029.8,-166.25 3029.8,-142.5 2580.15,-142.5"/>
<text xml:space="preserve" text-anchor="start" x="2731.85" y="-149.5" font-family="Arial" font-size="14.00">FIELD | SPINDLE_FWD</text>
<polyline fill="none" stroke="black" points="3267.95,-166.25 3029.8,-166.25 3029.8,-142.5 3267.95,-142.5"/>
<text xml:space="preserve" text-anchor="start" x="3139.88" y="-149.5" font-family="Arial" font-size="14.00">YE</text>
<polyline fill="none" stroke="black" points="3267.95,-142.5 3498.6,-142.5 3498.6,-166.25 3267.95,-166.25"/>
<polygon fill="#ffff00" stroke="none" points="3379.28,-150.38 3379.28,-158.38 3387.28,-158.38 3387.28,-150.38 3379.28,-150.38"/>
<polygon fill="none" stroke="black" points="3379.28,-150.38 3379.28,-158.38 3387.28,-158.38 3387.28,-150.38 3379.28,-150.38"/>
<polygon fill="none" stroke="black" points="3498.6,-142.5 3498.6,-166.25 3744.25,-166.25 3744.25,-142.5 3498.6,-142.5"/>
<text xml:space="preserve" text-anchor="start" x="3609.8" y="-149.5" font-family="Arial" font-size="14.00">F03</text>
<polygon fill="none" stroke="black" points="2334.5,-118.75 2334.5,-142.5 2580.15,-142.5 2580.15,-118.75 2334.5,-118.75"/>
<text xml:space="preserve" text-anchor="start" x="2443.82" y="-125.75" font-family="Arial" font-size="14.00">M03</text>
<polygon fill="none" stroke="black" points="2580.15,-118.75 2580.15,-142.5 3029.8,-142.5 3029.8,-118.75 2580.15,-118.75"/>
<text xml:space="preserve" text-anchor="start" x="2731.85" y="-125.75" font-family="Arial" font-size="14.00">MESA | SPINDLE_FWD</text>
<polyline fill="none" stroke="black" points="3267.95,-142.5 3029.8,-142.5 3029.8,-118.75 3267.95,-118.75"/>
<text xml:space="preserve" text-anchor="start" x="3139.88" y="-125.75" font-family="Arial" font-size="14.00">YE</text>
<polyline fill="none" stroke="black" points="3267.95,-118.75 3498.6,-118.75 3498.6,-142.5 3267.95,-142.5"/>
<polygon fill="#ffff00" stroke="none" points="3379.28,-126.62 3379.28,-134.62 3387.28,-134.62 3387.28,-126.62 3379.28,-126.62"/>
<polygon fill="none" stroke="black" points="3379.28,-126.62 3379.28,-134.62 3387.28,-134.62 3387.28,-126.62 3379.28,-126.62"/>
<polygon fill="none" stroke="black" points="3498.6,-118.75 3498.6,-142.5 3744.25,-142.5 3744.25,-118.75 3498.6,-118.75"/>
<text xml:space="preserve" text-anchor="start" x="3607.93" y="-125.75" font-family="Arial" font-size="14.00">M03</text>
<polygon fill="none" stroke="black" points="2334.5,-95 2334.5,-118.75 2580.15,-118.75 2580.15,-95 2334.5,-95"/>
<text xml:space="preserve" text-anchor="start" x="2445.7" y="-102" font-family="Arial" font-size="14.00">F04</text>
<polygon fill="none" stroke="black" points="2580.15,-95 2580.15,-118.75 3029.8,-118.75 3029.8,-95 2580.15,-95"/>
<text xml:space="preserve" text-anchor="start" x="2733.72" y="-102" font-family="Arial" font-size="14.00">FIELD | SPINDLE_REV</text>
<polyline fill="none" stroke="black" points="3267.95,-118.75 3029.8,-118.75 3029.8,-95 3267.95,-95"/>
<text xml:space="preserve" text-anchor="start" x="3139.88" y="-102" font-family="Arial" font-size="14.00">YE</text>
<polyline fill="none" stroke="black" points="3267.95,-95 3498.6,-95 3498.6,-118.75 3267.95,-118.75"/>
<polygon fill="#ffff00" stroke="none" points="3379.28,-102.88 3379.28,-110.88 3387.28,-110.88 3387.28,-102.88 3379.28,-102.88"/>
<polygon fill="none" stroke="black" points="3379.28,-102.88 3379.28,-110.88 3387.28,-110.88 3387.28,-102.88 3379.28,-102.88"/>
<polygon fill="none" stroke="black" points="3498.6,-95 3498.6,-118.75 3744.25,-118.75 3744.25,-95 3498.6,-95"/>
<text xml:space="preserve" text-anchor="start" x="3609.8" y="-102" font-family="Arial" font-size="14.00">F04</text>
<polygon fill="none" stroke="black" points="2334.5,-71.25 2334.5,-95 2580.15,-95 2580.15,-71.25 2334.5,-71.25"/>
<text xml:space="preserve" text-anchor="start" x="2443.82" y="-78.25" font-family="Arial" font-size="14.00">M04</text>
<polygon fill="none" stroke="black" points="2580.15,-71.25 2580.15,-95 3029.8,-95 3029.8,-71.25 2580.15,-71.25"/>
<text xml:space="preserve" text-anchor="start" x="2733.72" y="-78.25" font-family="Arial" font-size="14.00">MESA | SPINDLE_REV</text>
<polyline fill="none" stroke="black" points="3267.95,-95 3029.8,-95 3029.8,-71.25 3267.95,-71.25"/>
<text xml:space="preserve" text-anchor="start" x="3139.88" y="-78.25" font-family="Arial" font-size="14.00">YE</text>
<polyline fill="none" stroke="black" points="3267.95,-71.25 3498.6,-71.25 3498.6,-95 3267.95,-95"/>
<polygon fill="#ffff00" stroke="none" points="3379.28,-79.12 3379.28,-87.12 3387.28,-87.12 3387.28,-79.12 3379.28,-79.12"/>
<polygon fill="none" stroke="black" points="3379.28,-79.12 3379.28,-87.12 3387.28,-87.12 3387.28,-79.12 3379.28,-79.12"/>
<polygon fill="none" stroke="black" points="3498.6,-71.25 3498.6,-95 3744.25,-95 3744.25,-71.25 3498.6,-71.25"/>
<text xml:space="preserve" text-anchor="start" x="3607.93" y="-78.25" font-family="Arial" font-size="14.00">M04</text>
<polygon fill="none" stroke="black" points="2334.5,-47.5 2334.5,-71.25 2580.15,-71.25 2580.15,-47.5 2334.5,-47.5"/>
<text xml:space="preserve" text-anchor="start" x="2445.7" y="-54.5" font-family="Arial" font-size="14.00">F05</text>
<polygon fill="none" stroke="black" points="2580.15,-47.5 2580.15,-71.25 3029.8,-71.25 3029.8,-47.5 2580.15,-47.5"/>
<text xml:space="preserve" text-anchor="start" x="2689.47" y="-54.5" font-family="Arial" font-size="14.00">FIELD | SPINDLE_ORIENT_ARRIVAL</text>
<polyline fill="none" stroke="black" points="3267.95,-71.25 3029.8,-71.25 3029.8,-47.5 3267.95,-47.5"/>
<text xml:space="preserve" text-anchor="start" x="3139.88" y="-54.5" font-family="Arial" font-size="14.00">YE</text>
<polyline fill="none" stroke="black" points="3267.95,-47.5 3498.6,-47.5 3498.6,-71.25 3267.95,-71.25"/>
<polygon fill="#ffff00" stroke="none" points="3379.28,-55.38 3379.28,-63.38 3387.28,-63.38 3387.28,-55.38 3379.28,-55.38"/>
<polygon fill="none" stroke="black" points="3379.28,-55.38 3379.28,-63.38 3387.28,-63.38 3387.28,-55.38 3379.28,-55.38"/>
<polygon fill="none" stroke="black" points="3498.6,-47.5 3498.6,-71.25 3744.25,-71.25 3744.25,-47.5 3498.6,-47.5"/>
<text xml:space="preserve" text-anchor="start" x="3609.8" y="-54.5" font-family="Arial" font-size="14.00">F05</text>
<polygon fill="none" stroke="black" points="2334.5,-23.75 2334.5,-47.5 2580.15,-47.5 2580.15,-23.75 2334.5,-23.75"/>
<text xml:space="preserve" text-anchor="start" x="2443.82" y="-30.75" font-family="Arial" font-size="14.00">M05</text>
<polygon fill="none" stroke="black" points="2580.15,-23.75 2580.15,-47.5 3029.8,-47.5 3029.8,-23.75 2580.15,-23.75"/>
<text xml:space="preserve" text-anchor="start" x="2689.47" y="-30.75" font-family="Arial" font-size="14.00">MESA | SPINDLE_ORIENT_ARRIVAL</text>
<polyline fill="none" stroke="black" points="3267.95,-47.5 3029.8,-47.5 3029.8,-23.75 3267.95,-23.75"/>
<text xml:space="preserve" text-anchor="start" x="3139.88" y="-30.75" font-family="Arial" font-size="14.00">YE</text>
<polyline fill="none" stroke="black" points="3267.95,-23.75 3498.6,-23.75 3498.6,-47.5 3267.95,-47.5"/>
<polygon fill="#ffff00" stroke="none" points="3379.28,-31.62 3379.28,-39.62 3387.28,-39.62 3387.28,-31.62 3379.28,-31.62"/>
<polygon fill="none" stroke="black" points="3379.28,-31.62 3379.28,-39.62 3387.28,-39.62 3387.28,-31.62 3379.28,-31.62"/>
<polygon fill="none" stroke="black" points="3498.6,-23.75 3498.6,-47.5 3744.25,-47.5 3744.25,-23.75 3498.6,-23.75"/>
<text xml:space="preserve" text-anchor="start" x="3607.93" y="-30.75" font-family="Arial" font-size="14.00">M05</text>
<polygon fill="none" stroke="black" points="2334.5,0 2334.5,-23.75 3744.25,-23.75 3744.25,0 2334.5,0"/>
<text xml:space="preserve" text-anchor="start" x="2338.5" y="-7" font-family="Arial" font-size="14.00">PRELIMINARY &#45; NOT RELEASED FOR WIRING. Fxx and Mxx are logical boundary identifiers, not purchased relay terminal numbers. Specify coil/contact topology, suppression, voltage domain, and actual terminal IDs before release.</text>
</g>
<!-- NEW_CONTROL_WIRING -->
<g id="node5" class="node">
<title>NEW_CONTROL_WIRING</title>
<polygon fill="#ffffff" stroke="black" points="5041,-272.12 3888.25,-272.12 3888.25,-32.62 5041,-32.62 5041,-272.12"/>
<polygon fill="none" stroke="black" points="3888.25,-248.38 3888.25,-272.12 5041,-272.12 5041,-248.38 3888.25,-248.38"/>
<text xml:space="preserve" text-anchor="start" x="4381.38" y="-255.38" font-family="Arial" font-size="14.00">NEW_CONTROL_WIRING</text>
<polygon fill="none" stroke="black" points="3888.25,-224.62 3888.25,-248.38 5041,-248.38 5041,-224.62 3888.25,-224.62"/>
<text xml:space="preserve" text-anchor="start" x="4379.5" y="-231.62" font-family="Arial" font-size="14.00">New control&#45;side conductors</text>
<text xml:space="preserve" text-anchor="start" x="4069.88" y="-209.88" font-family="Arial" font-size="14.00"> </text>
<text xml:space="preserve" text-anchor="start" x="3902.62" y="-190.12" font-family="Arial" font-size="14.00">IR_BOUNDARY:M01:MESA | SPINDLE_ZERO_SPEED</text>
<text xml:space="preserve" text-anchor="start" x="4259.5" y="-190.12" font-family="Arial" font-size="14.00"> &#160;&#160;&#160;&#160;1:RD:SPINDLE_ZERO_SPEED | spindle&#45;zero&#45;speed &#160;&#160;&#160;</text>
<text xml:space="preserve" text-anchor="start" x="4616.75" y="-190.12" font-family="Arial" font-size="14.00">7i84U&#45;A_TB3:IN5:IN5 | spindle&#45;zero&#45;speed | HOLD &#45; OEM CONFLICT</text>
<polygon fill="#000000" stroke="none" points="3888.25,-183.12 3888.25,-185.12 5041,-185.12 5041,-183.12 3888.25,-183.12"/>
<polygon fill="#ff0000" stroke="none" points="3888.25,-181.12 3888.25,-183.12 5041,-183.12 5041,-181.12 3888.25,-181.12"/>
<polygon fill="#000000" stroke="none" points="3888.25,-179.12 3888.25,-181.12 5041,-181.12 5041,-179.12 3888.25,-179.12"/>
<text xml:space="preserve" text-anchor="start" x="3927.75" y="-164.38" font-family="Arial" font-size="14.00">IR_BOUNDARY:M02:MESA | SPINDLE_FAULT</text>
<text xml:space="preserve" text-anchor="start" x="4306.38" y="-164.38" font-family="Arial" font-size="14.00"> &#160;&#160;&#160;&#160;2:YE:SPINDLE_FAULT | spindle&#45;fault &#160;&#160;&#160;</text>
<text xml:space="preserve" text-anchor="start" x="4662.12" y="-164.38" font-family="Arial" font-size="14.00">7i84U&#45;A_TB3:IN14:IN14 | spindle&#45;fault | FIELD VERIFY</text>
<polygon fill="#000000" stroke="none" points="3888.25,-157.38 3888.25,-159.38 5041,-159.38 5041,-157.38 3888.25,-157.38"/>
<polygon fill="#ffff00" stroke="none" points="3888.25,-155.38 3888.25,-157.38 5041,-157.38 5041,-155.38 3888.25,-155.38"/>
<polygon fill="#000000" stroke="none" points="3888.25,-153.38 3888.25,-155.38 5041,-155.38 5041,-153.38 3888.25,-153.38"/>
<text xml:space="preserve" text-anchor="start" x="3932.62" y="-138.62" font-family="Arial" font-size="14.00">IR_BOUNDARY:M03:MESA | SPINDLE_FWD</text>
<text xml:space="preserve" text-anchor="start" x="4313.5" y="-138.62" font-family="Arial" font-size="14.00"> &#160;&#160;&#160;&#160;3:YE:SPINDLE_FWD | spindle&#45;fwd &#160;&#160;&#160;</text>
<text xml:space="preserve" text-anchor="start" x="4656.12" y="-138.62" font-family="Arial" font-size="14.00">7i84U&#45;A_TB3:OUT0:OUT0 | spindle&#45;fwd | FIELD VERIFY</text>
<polygon fill="#000000" stroke="none" points="3888.25,-131.62 3888.25,-133.62 5041,-133.62 5041,-131.62 3888.25,-131.62"/>
<polygon fill="#ffff00" stroke="none" points="3888.25,-129.62 3888.25,-131.62 5041,-131.62 5041,-129.62 3888.25,-129.62"/>
<polygon fill="#000000" stroke="none" points="3888.25,-127.62 3888.25,-129.62 5041,-129.62 5041,-127.62 3888.25,-127.62"/>
<text xml:space="preserve" text-anchor="start" x="3934.5" y="-112.88" font-family="Arial" font-size="14.00">IR_BOUNDARY:M04:MESA | SPINDLE_REV</text>
<text xml:space="preserve" text-anchor="start" x="4316.5" y="-112.88" font-family="Arial" font-size="14.00"> &#160;&#160;&#160;&#160;4:YE:SPINDLE_REV | spindle&#45;rev &#160;&#160;&#160;</text>
<text xml:space="preserve" text-anchor="start" x="4657.25" y="-112.88" font-family="Arial" font-size="14.00">7i84U&#45;A_TB3:OUT1:OUT1 | spindle&#45;rev | FIELD VERIFY</text>
<polygon fill="#000000" stroke="none" points="3888.25,-105.88 3888.25,-107.88 5041,-107.88 5041,-105.88 3888.25,-105.88"/>
<polygon fill="#ffff00" stroke="none" points="3888.25,-103.88 3888.25,-105.88 5041,-105.88 5041,-103.88 3888.25,-103.88"/>
<polygon fill="#000000" stroke="none" points="3888.25,-101.88 3888.25,-103.88 5041,-103.88 5041,-101.88 3888.25,-101.88"/>
<text xml:space="preserve" text-anchor="start" x="3890.25" y="-87.12" font-family="Arial" font-size="14.00">IR_BOUNDARY:M05:MESA | SPINDLE_ORIENT_ARRIVAL</text>
<text xml:space="preserve" text-anchor="start" x="4257.25" y="-87.12" font-family="Arial" font-size="14.00"> &#160;&#160;&#160;&#160;5:YE:SPINDLE_ORIENT_ARRIVAL | spindle&#45;oriented &#160;&#160;&#160;</text>
<text xml:space="preserve" text-anchor="start" x="4658" y="-87.12" font-family="Arial" font-size="14.00">7i84U&#45;A_TB3:IN4:IN4 | spindle&#45;oriented | FIELD VERIFY</text>
<polygon fill="#000000" stroke="none" points="3888.25,-80.12 3888.25,-82.12 5041,-82.12 5041,-80.12 3888.25,-80.12"/>
<polygon fill="#ffff00" stroke="none" points="3888.25,-78.12 3888.25,-80.12 5041,-80.12 5041,-78.12 3888.25,-78.12"/>
<polygon fill="#000000" stroke="none" points="3888.25,-76.12 3888.25,-78.12 5041,-78.12 5041,-76.12 3888.25,-76.12"/>
<text xml:space="preserve" text-anchor="start" x="4069.88" y="-61.38" font-family="Arial" font-size="14.00"> </text>
<polygon fill="none" stroke="black" points="3888.25,-32.62 3888.25,-56.38 5041,-56.38 5041,-32.62 3888.25,-32.62"/>
<text xml:space="preserve" text-anchor="start" x="4181.12" y="-39.62" font-family="Arial" font-size="14.00">Assign permanent new wire numbers, gauge, color, and ferrules in the relay terminal schedule.</text>
</g>
<!-- IR_BOUNDARY&#45;&#45;NEW_CONTROL_WIRING -->
<g id="edge11" class="edge">
<title>IR_BOUNDARY:e&#45;&#45;NEW_CONTROL_WIRING:w</title>
<path fill="none" stroke="#000000" stroke-width="2" d="M3744.25,-223.63C3809.16,-225.16 3819.45,-181.66 3888.25,-180.13"/>
<path fill="none" stroke="#ff0000" stroke-width="2" d="M3744.25,-225.62C3811.11,-225.62 3821.39,-182.12 3888.25,-182.12"/>
<path fill="none" stroke="#000000" stroke-width="2" d="M3744.25,-227.62C3813.05,-226.09 3823.34,-182.59 3888.25,-184.12"/>
</g>
<!-- IR_BOUNDARY&#45;&#45;NEW_CONTROL_WIRING -->
<g id="edge13" class="edge">
<title>IR_BOUNDARY:e&#45;&#45;NEW_CONTROL_WIRING:w</title>
<path fill="none" stroke="#000000" stroke-width="2" d="M3744.25,-176.13C3807.31,-177.01 3821.86,-155.26 3888.25,-154.38"/>
<path fill="none" stroke="#ffff00" stroke-width="2" d="M3744.25,-178.12C3808.98,-178.12 3823.52,-156.38 3888.25,-156.38"/>
<path fill="none" stroke="#000000" stroke-width="2" d="M3744.25,-180.12C3810.64,-179.24 3825.19,-157.49 3888.25,-158.37"/>
</g>
<!-- IR_BOUNDARY&#45;&#45;NEW_CONTROL_WIRING -->
<g id="edge15" class="edge">
<title>IR_BOUNDARY:e&#45;&#45;NEW_CONTROL_WIRING:w</title>
<path fill="none" stroke="#000000" stroke-width="2" d="M3744.25,-128.63C3808.25,-128.62 3824.25,-128.62 3888.25,-128.63"/>
<path fill="none" stroke="#ffff00" stroke-width="2" d="M3744.25,-130.63C3808.25,-130.62 3824.25,-130.62 3888.25,-130.63"/>
<path fill="none" stroke="#000000" stroke-width="2" d="M3744.25,-132.62C3808.25,-132.62 3824.25,-132.62 3888.25,-132.62"/>
</g>
<!-- IR_BOUNDARY&#45;&#45;NEW_CONTROL_WIRING -->
<g id="edge17" class="edge">
<title>IR_BOUNDARY:e&#45;&#45;NEW_CONTROL_WIRING:w</title>
<path fill="none" stroke="#000000" stroke-width="2" d="M3744.25,-81.13C3810.64,-82.01 3825.19,-103.76 3888.25,-102.88"/>
<path fill="none" stroke="#ffff00" stroke-width="2" d="M3744.25,-83.12C3808.98,-83.13 3823.52,-104.88 3888.25,-104.87"/>
<path fill="none" stroke="#000000" stroke-width="2" d="M3744.25,-85.12C3807.31,-84.24 3821.86,-105.99 3888.25,-106.87"/>
</g>
<!-- IR_BOUNDARY&#45;&#45;NEW_CONTROL_WIRING -->
<g id="edge19" class="edge">
<title>IR_BOUNDARY:e&#45;&#45;NEW_CONTROL_WIRING:w</title>
<path fill="none" stroke="#000000" stroke-width="2" d="M3744.25,-33.63C3813.05,-35.16 3823.34,-78.66 3888.25,-77.13"/>
<path fill="none" stroke="#ffff00" stroke-width="2" d="M3744.25,-35.62C3811.11,-35.63 3821.39,-79.12 3888.25,-79.12"/>
<path fill="none" stroke="#000000" stroke-width="2" d="M3744.25,-37.62C3809.16,-36.09 3819.45,-79.59 3888.25,-81.12"/>
</g>
<!-- 7i84U&#45;A_TB3 -->
<g id="node3" class="node">
<title>7i84U&#45;A_TB3</title>
<polygon fill="#ffffff" stroke="black" points="5844,-238.38 5185,-238.38 5185,-48.38 5844,-48.38 5844,-238.38"/>
<polygon fill="#a0dfff" stroke="none" points="5185,-214.62 5185,-238.38 5844,-238.38 5844,-214.62 5185,-214.62"/>
<polygon fill="none" stroke="black" points="5185,-214.62 5185,-238.38 5844,-238.38 5844,-214.62 5185,-214.62"/>
<text xml:space="preserve" text-anchor="start" x="5474" y="-221.62" font-family="Arial" font-size="14.00">7i84U&#45;A_TB3</text>
<polygon fill="none" stroke="black" points="5185,-190.88 5185,-214.62 5844,-214.62 5844,-190.88 5185,-190.88"/>
<text xml:space="preserve" text-anchor="start" x="5476.25" y="-197.88" font-family="Arial" font-size="14.00">7i84U&#45;A TB3</text>
<polygon fill="none" stroke="black" points="5185,-167.12 5185,-190.88 5291.25,-190.88 5291.25,-167.12 5185,-167.12"/>
<text xml:space="preserve" text-anchor="start" x="5227.62" y="-174.12" font-family="Arial" font-size="14.00">IN5</text>
<polygon fill="none" stroke="black" points="5291.25,-167.12 5291.25,-190.88 5673.5,-190.88 5673.5,-167.12 5291.25,-167.12"/>
<text xml:space="preserve" text-anchor="start" x="5326" y="-174.12" font-family="Arial" font-size="14.00">IN5 | spindle&#45;zero&#45;speed | HOLD &#45; OEM CONFLICT</text>
<polyline fill="none" stroke="black" points="5762.5,-190.88 5673.5,-190.88 5673.5,-167.12 5762.5,-167.12"/>
<text xml:space="preserve" text-anchor="start" x="5708.25" y="-174.12" font-family="Arial" font-size="14.00">RD</text>
<polyline fill="none" stroke="black" points="5762.5,-167.12 5844,-167.12 5844,-190.88 5762.5,-190.88"/>
<polygon fill="#ff0000" stroke="none" points="5799.25,-175 5799.25,-183 5807.25,-183 5807.25,-175 5799.25,-175"/>
<polygon fill="none" stroke="black" points="5799.25,-175 5799.25,-183 5807.25,-183 5807.25,-175 5799.25,-175"/>
<polygon fill="none" stroke="black" points="5185,-143.38 5185,-167.12 5291.25,-167.12 5291.25,-143.38 5185,-143.38"/>
<text xml:space="preserve" text-anchor="start" x="5223.88" y="-150.38" font-family="Arial" font-size="14.00">IN14</text>
<polygon fill="none" stroke="black" points="5291.25,-143.38 5291.25,-167.12 5673.5,-167.12 5673.5,-143.38 5291.25,-143.38"/>
<text xml:space="preserve" text-anchor="start" x="5375.12" y="-150.38" font-family="Arial" font-size="14.00">IN14 | spindle&#45;fault | FIELD VERIFY</text>
<polyline fill="none" stroke="black" points="5762.5,-167.12 5673.5,-167.12 5673.5,-143.38 5762.5,-143.38"/>
<text xml:space="preserve" text-anchor="start" x="5709" y="-150.38" font-family="Arial" font-size="14.00">YE</text>
<polyline fill="none" stroke="black" points="5762.5,-143.38 5844,-143.38 5844,-167.12 5762.5,-167.12"/>
<polygon fill="#ffff00" stroke="none" points="5799.25,-151.25 5799.25,-159.25 5807.25,-159.25 5807.25,-151.25 5799.25,-151.25"/>
<polygon fill="none" stroke="black" points="5799.25,-151.25 5799.25,-159.25 5807.25,-159.25 5807.25,-151.25 5799.25,-151.25"/>
<polygon fill="none" stroke="black" points="5185,-119.62 5185,-143.38 5291.25,-143.38 5291.25,-119.62 5185,-119.62"/>
<text xml:space="preserve" text-anchor="start" x="5219.75" y="-126.62" font-family="Arial" font-size="14.00">OUT0</text>
<polygon fill="none" stroke="black" points="5291.25,-119.62 5291.25,-143.38 5673.5,-143.38 5673.5,-119.62 5291.25,-119.62"/>
<text xml:space="preserve" text-anchor="start" x="5373.25" y="-126.62" font-family="Arial" font-size="14.00">OUT0 | spindle&#45;fwd | FIELD VERIFY</text>
<polyline fill="none" stroke="black" points="5762.5,-143.38 5673.5,-143.38 5673.5,-119.62 5762.5,-119.62"/>
<text xml:space="preserve" text-anchor="start" x="5709" y="-126.62" font-family="Arial" font-size="14.00">YE</text>
<polyline fill="none" stroke="black" points="5762.5,-119.62 5844,-119.62 5844,-143.38 5762.5,-143.38"/>
<polygon fill="#ffff00" stroke="none" points="5799.25,-127.5 5799.25,-135.5 5807.25,-135.5 5807.25,-127.5 5799.25,-127.5"/>
<polygon fill="none" stroke="black" points="5799.25,-127.5 5799.25,-135.5 5807.25,-135.5 5807.25,-127.5 5799.25,-127.5"/>
<polygon fill="none" stroke="black" points="5185,-95.88 5185,-119.62 5291.25,-119.62 5291.25,-95.88 5185,-95.88"/>
<text xml:space="preserve" text-anchor="start" x="5219.75" y="-102.88" font-family="Arial" font-size="14.00">OUT1</text>
<polygon fill="none" stroke="black" points="5291.25,-95.88 5291.25,-119.62 5673.5,-119.62 5673.5,-95.88 5291.25,-95.88"/>
<text xml:space="preserve" text-anchor="start" x="5374.38" y="-102.88" font-family="Arial" font-size="14.00">OUT1 | spindle&#45;rev | FIELD VERIFY</text>
<polyline fill="none" stroke="black" points="5762.5,-119.62 5673.5,-119.62 5673.5,-95.88 5762.5,-95.88"/>
<text xml:space="preserve" text-anchor="start" x="5709" y="-102.88" font-family="Arial" font-size="14.00">YE</text>
<polyline fill="none" stroke="black" points="5762.5,-95.88 5844,-95.88 5844,-119.62 5762.5,-119.62"/>
<polygon fill="#ffff00" stroke="none" points="5799.25,-103.75 5799.25,-111.75 5807.25,-111.75 5807.25,-103.75 5799.25,-103.75"/>
<polygon fill="none" stroke="black" points="5799.25,-103.75 5799.25,-111.75 5807.25,-111.75 5807.25,-103.75 5799.25,-103.75"/>
<polygon fill="none" stroke="black" points="5185,-72.12 5185,-95.88 5291.25,-95.88 5291.25,-72.12 5185,-72.12"/>
<text xml:space="preserve" text-anchor="start" x="5227.62" y="-79.12" font-family="Arial" font-size="14.00">IN4</text>
<polygon fill="none" stroke="black" points="5291.25,-72.12 5291.25,-95.88 5673.5,-95.88 5673.5,-72.12 5291.25,-72.12"/>
<text xml:space="preserve" text-anchor="start" x="5367.25" y="-79.12" font-family="Arial" font-size="14.00">IN4 | spindle&#45;oriented | FIELD VERIFY</text>
<polyline fill="none" stroke="black" points="5762.5,-95.88 5673.5,-95.88 5673.5,-72.12 5762.5,-72.12"/>
<text xml:space="preserve" text-anchor="start" x="5709" y="-79.12" font-family="Arial" font-size="14.00">YE</text>
<polyline fill="none" stroke="black" points="5762.5,-72.12 5844,-72.12 5844,-95.88 5762.5,-95.88"/>
<polygon fill="#ffff00" stroke="none" points="5799.25,-80 5799.25,-88 5807.25,-88 5807.25,-80 5799.25,-80"/>
<polygon fill="none" stroke="black" points="5799.25,-80 5799.25,-88 5807.25,-88 5807.25,-80 5799.25,-80"/>
<polygon fill="none" stroke="black" points="5185,-48.38 5185,-72.12 5844,-72.12 5844,-48.38 5185,-48.38"/>
<text xml:space="preserve" text-anchor="start" x="5189" y="-55.38" font-family="Arial" font-size="14.00">Mesa terminal text is copied from the crosswalk; verify physical terminal numbering against the card manual.</text>
</g>
<!-- OEM_CONDUCTORS&#45;&#45;IR_BOUNDARY -->
<g id="edge2" class="edge">
<title>OEM_CONDUCTORS:e&#45;&#45;IR_BOUNDARY:w</title>
<path fill="none" stroke="#000000" stroke-width="2" d="M2190.5,-203.13C2259.4,-204.68 2269.5,-248.93 2334.5,-247.38"/>
<path fill="none" stroke="#ff0000" stroke-width="2" d="M2190.5,-205.12C2257.45,-205.12 2267.55,-249.38 2334.5,-249.38"/>
<path fill="none" stroke="#000000" stroke-width="2" d="M2190.5,-207.12C2255.5,-205.57 2265.6,-249.82 2334.5,-251.37"/>
</g>
<!-- OEM_CONDUCTORS&#45;&#45;IR_BOUNDARY -->
<g id="edge4" class="edge">
<title>OEM_CONDUCTORS:e&#45;&#45;IR_BOUNDARY:w</title>
<path fill="none" stroke="#000000" stroke-width="2" d="M2190.5,-177.38C2256.96,-178.29 2271.41,-200.79 2334.5,-199.88"/>
<path fill="none" stroke="#ffff00" stroke-width="2" d="M2190.5,-179.37C2255.28,-179.37 2269.72,-201.87 2334.5,-201.87"/>
<path fill="none" stroke="#000000" stroke-width="2" d="M2190.5,-181.37C2253.59,-180.46 2268.04,-202.96 2334.5,-203.87"/>
</g>
<!-- OEM_CONDUCTORS&#45;&#45;IR_BOUNDARY -->
<g id="edge6" class="edge">
<title>OEM_CONDUCTORS:e&#45;&#45;IR_BOUNDARY:w</title>
<path fill="none" stroke="#000000" stroke-width="2" d="M2190.5,-151.63C2254.59,-151.63 2270.59,-152.38 2334.5,-152.38"/>
<path fill="none" stroke="#ffff00" stroke-width="2" d="M2190.5,-153.62C2254.5,-153.62 2270.5,-154.37 2334.5,-154.38"/>
<path fill="none" stroke="#000000" stroke-width="2" d="M2190.5,-155.62C2254.41,-155.62 2270.41,-156.37 2334.5,-156.37"/>
</g>
<!-- OEM_CONDUCTORS&#45;&#45;IR_BOUNDARY -->
<g id="edge8" class="edge">
<title>OEM_CONDUCTORS:e&#45;&#45;IR_BOUNDARY:w</title>
<path fill="none" stroke="#000000" stroke-width="2" d="M2190.5,-125.88C2253.54,-126.73 2268.18,-105.73 2334.5,-104.88"/>
<path fill="none" stroke="#ffff00" stroke-width="2" d="M2190.5,-127.87C2255.18,-127.88 2269.82,-106.88 2334.5,-106.87"/>
<path fill="none" stroke="#000000" stroke-width="2" d="M2190.5,-129.87C2256.82,-129.02 2271.46,-108.02 2334.5,-108.87"/>
</g>
<!-- OEM_CONDUCTORS&#45;&#45;IR_BOUNDARY -->
<g id="edge10" class="edge">
<title>OEM_CONDUCTORS:e&#45;&#45;IR_BOUNDARY:w</title>
<path fill="none" stroke="#000000" stroke-width="2" d="M2190.5,-100.13C2255.32,-101.65 2265.8,-58.9 2334.5,-57.38"/>
<path fill="none" stroke="#ffff00" stroke-width="2" d="M2190.5,-102.13C2257.26,-102.12 2267.74,-59.38 2334.5,-59.38"/>
<path fill="none" stroke="#000000" stroke-width="2" d="M2190.5,-104.12C2259.2,-102.6 2269.68,-59.85 2334.5,-61.37"/>
</g>
<!-- NEW_CONTROL_WIRING&#45;&#45;7i84U&#45;A_TB3 -->
<g id="edge12" class="edge">
<title>NEW_CONTROL_WIRING:e&#45;&#45;7i84U&#45;A_TB3:w</title>
<path fill="none" stroke="#000000" stroke-width="2" d="M5041,-180.13C5104.63,-180.16 5120.6,-177.04 5185,-177"/>
<path fill="none" stroke="#ff0000" stroke-width="2" d="M5041,-182.12C5105.02,-182.12 5120.98,-179 5185,-179"/>
<path fill="none" stroke="#000000" stroke-width="2" d="M5041,-184.12C5105.4,-184.09 5121.37,-180.96 5185,-181"/>
</g>
<!-- NEW_CONTROL_WIRING&#45;&#45;7i84U&#45;A_TB3 -->
<g id="edge14" class="edge">
<title>NEW_CONTROL_WIRING:e&#45;&#45;7i84U&#45;A_TB3:w</title>
<path fill="none" stroke="#000000" stroke-width="2" d="M5041,-154.38C5104.86,-154.38 5120.86,-153.25 5185,-153.25"/>
<path fill="none" stroke="#ffff00" stroke-width="2" d="M5041,-156.38C5105,-156.37 5121,-155.25 5185,-155.25"/>
<path fill="none" stroke="#000000" stroke-width="2" d="M5041,-158.37C5105.14,-158.37 5121.14,-157.25 5185,-157.25"/>
</g>
<!-- NEW_CONTROL_WIRING&#45;&#45;7i84U&#45;A_TB3 -->
<g id="edge16" class="edge">
<title>NEW_CONTROL_WIRING:e&#45;&#45;7i84U&#45;A_TB3:w</title>
<path fill="none" stroke="#000000" stroke-width="2" d="M5041,-128.63C5105.11,-128.63 5121.11,-129.5 5185,-129.5"/>
<path fill="none" stroke="#ffff00" stroke-width="2" d="M5041,-130.62C5105,-130.63 5121,-131.5 5185,-131.5"/>
<path fill="none" stroke="#000000" stroke-width="2" d="M5041,-132.62C5104.89,-132.62 5120.89,-133.5 5185,-133.5"/>
</g>
<!-- NEW_CONTROL_WIRING&#45;&#45;7i84U&#45;A_TB3 -->
<g id="edge18" class="edge">
<title>NEW_CONTROL_WIRING:e&#45;&#45;7i84U&#45;A_TB3:w</title>
<path fill="none" stroke="#000000" stroke-width="2" d="M5041,-102.88C5105.37,-102.91 5121.34,-105.78 5185,-105.75"/>
<path fill="none" stroke="#ffff00" stroke-width="2" d="M5041,-104.88C5105.01,-104.87 5120.99,-107.75 5185,-107.75"/>
<path fill="none" stroke="#000000" stroke-width="2" d="M5041,-106.87C5104.66,-106.84 5120.63,-109.72 5185,-109.75"/>
</g>
<!-- NEW_CONTROL_WIRING&#45;&#45;7i84U&#45;A_TB3 -->
<g id="edge20" class="edge">
<title>NEW_CONTROL_WIRING:e&#45;&#45;7i84U&#45;A_TB3:w</title>
<path fill="none" stroke="#000000" stroke-width="2" d="M5041,-77.13C5105.62,-77.21 5121.55,-82.09 5185,-82"/>
<path fill="none" stroke="#ffff00" stroke-width="2" d="M5041,-79.12C5105.04,-79.12 5120.96,-84 5185,-84"/>
<path fill="none" stroke="#000000" stroke-width="2" d="M5041,-81.12C5104.45,-81.04 5120.38,-85.91 5185,-86"/>
</g>
</g>
</svg>
