<?xml version="1.0" encoding="UTF-8" standalone="no"?>
<!DOCTYPE svg PUBLIC "-//W3C//DTD SVG 1.1//EN"
 "http://www.w3.org/Graphics/SVG/1.1/DTD/svg11.dtd">
<!-- Generated by graphviz version 15.1.0 (20260618.0150)
 -->
<!-- Pages: 1 -->
<svg width="1548pt" height="166pt"
 viewBox="0.00 0.00 1548.00 166.00" xmlns="http://www.w3.org/2000/svg" xmlns:xlink="http://www.w3.org/1999/xlink">
<g id="graph0" class="graph" transform="scale(1 1) rotate(0) translate(0 165.75)">
<polygon fill="#ffffff" stroke="none" points="0,0 0,-165.75 1547.5,-165.75 1547.5,0 0,0"/>
<!-- CN4 -->
<g id="node1" class="node">
<title>CN4</title>
<polygon fill="#ffffff" stroke="black" points="262.75,-137.5 0,-137.5 0,-46 262.75,-46 262.75,-137.5"/>
<polygon fill="#a0dfff" stroke="none" points="0,-123 0,-137.5 262.75,-137.5 262.75,-123 0,-123"/>
<polygon fill="none" stroke="black" points="0,-123 0,-137.5 262.75,-137.5 262.75,-123 0,-123"/>
<text xml:space="preserve" text-anchor="start" x="122" y="-127.25" font-family="Arial" font-size="9.00">CN4</text>
<polygon fill="none" stroke="black" points="0,-108.5 0,-123 262.75,-123 262.75,-108.5 0,-108.5"/>
<text xml:space="preserve" text-anchor="start" x="79.62" y="-112.75" font-family="Arial" font-size="9.00">OEM / field endpoint CN4</text>
<polygon fill="none" stroke="black" points="0,-92.5 0,-108.5 214.75,-108.5 214.75,-92.5 0,-92.5"/>
<text xml:space="preserve" text-anchor="start" x="2" y="-97.5" font-family="Arial" font-size="9.00">18 | SPINDLE_SPEED_SE1 | lead/wire SE1 | HOLD</text>
<polyline fill="none" stroke="black" points="232.25,-108.5 214.75,-108.5 214.75,-92.5 232.25,-92.5"/>
<text xml:space="preserve" text-anchor="start" x="216.75" y="-97.5" font-family="Arial" font-size="9.00">RD</text>
<polyline fill="none" stroke="black" points="232.25,-92.5 248.25,-92.5 248.25,-108.5 232.25,-108.5"/>
<polygon fill="#ff0000" stroke="none" points="236.25,-96.5 236.25,-104.5 244.25,-104.5 244.25,-96.5 236.25,-96.5"/>
<polygon fill="none" stroke="black" points="236.25,-96.5 236.25,-104.5 244.25,-104.5 244.25,-96.5 236.25,-96.5"/>
<polygon fill="none" stroke="black" points="248.25,-92.5 248.25,-108.5 262.75,-108.5 262.75,-92.5 248.25,-92.5"/>
<text xml:space="preserve" text-anchor="start" x="250.25" y="-97.5" font-family="Arial" font-size="9.00">18</text>
<polygon fill="none" stroke="black" points="0,-76.5 0,-92.5 214.75,-92.5 214.75,-76.5 0,-76.5"/>
<text xml:space="preserve" text-anchor="start" x="2" y="-81.5" font-family="Arial" font-size="9.00">19 | SPINDLE_SPEED_SE2 | lead/wire SE2 | HOLD</text>
<polyline fill="none" stroke="black" points="232.25,-92.5 214.75,-92.5 214.75,-76.5 232.25,-76.5"/>
<text xml:space="preserve" text-anchor="start" x="216.75" y="-81.5" font-family="Arial" font-size="9.00">RD</text>
<polyline fill="none" stroke="black" points="232.25,-76.5 248.25,-76.5 248.25,-92.5 232.25,-92.5"/>
<polygon fill="#ff0000" stroke="none" points="236.25,-80.5 236.25,-88.5 244.25,-88.5 244.25,-80.5 236.25,-80.5"/>
<polygon fill="none" stroke="black" points="236.25,-80.5 236.25,-88.5 244.25,-88.5 244.25,-80.5 236.25,-80.5"/>
<polygon fill="none" stroke="black" points="248.25,-76.5 248.25,-92.5 262.75,-92.5 262.75,-76.5 248.25,-76.5"/>
<text xml:space="preserve" text-anchor="start" x="250.25" y="-81.5" font-family="Arial" font-size="9.00">19</text>
<polygon fill="none" stroke="black" points="0,-60.5 0,-76.5 214.75,-76.5 214.75,-60.5 0,-60.5"/>
<text xml:space="preserve" text-anchor="start" x="2" y="-65.5" font-family="Arial" font-size="9.00">20 | SPINDLE_SPEED_SE3 | lead/wire SE3 | HOLD</text>
<polyline fill="none" stroke="black" points="232.25,-76.5 214.75,-76.5 214.75,-60.5 232.25,-60.5"/>
<text xml:space="preserve" text-anchor="start" x="216.75" y="-65.5" font-family="Arial" font-size="9.00">RD</text>
<polyline fill="none" stroke="black" points="232.25,-60.5 248.25,-60.5 248.25,-76.5 232.25,-76.5"/>
<polygon fill="#ff0000" stroke="none" points="236.25,-64.5 236.25,-72.5 244.25,-72.5 244.25,-64.5 236.25,-64.5"/>
<polygon fill="none" stroke="black" points="236.25,-64.5 236.25,-72.5 244.25,-72.5 244.25,-64.5 236.25,-64.5"/>
<polygon fill="none" stroke="black" points="248.25,-60.5 248.25,-76.5 262.75,-76.5 262.75,-60.5 248.25,-60.5"/>
<text xml:space="preserve" text-anchor="start" x="250.25" y="-65.5" font-family="Arial" font-size="9.00">20</text>
<polygon fill="none" stroke="black" points="0,-46 0,-60.5 262.75,-60.5 262.75,-46 0,-46"/>
<text xml:space="preserve" text-anchor="start" x="27.12" y="-50.25" font-family="Arial" font-size="9.00">Source identity remains unresolved; see crosswalk.</text>
</g>
<!-- DIRECT_INTERFACE -->
<g id="node4" class="node">
<title>DIRECT_INTERFACE</title>
<polygon fill="#ffffff" stroke="black" points="1118.75,-165.75 287.75,-165.75 287.75,-31.75 1118.75,-31.75 1118.75,-165.75"/>
<polygon fill="none" stroke="black" points="287.75,-151.25 287.75,-165.75 1118.75,-165.75 1118.75,-151.25 287.75,-151.25"/>
<text xml:space="preserve" text-anchor="start" x="658.25" y="-155.5" font-family="Arial" font-size="9.00">DIRECT_INTERFACE</text>
<polygon fill="none" stroke="black" points="287.75,-136.75 287.75,-151.25 1118.75,-151.25 1118.75,-136.75 287.75,-136.75"/>
<text xml:space="preserve" text-anchor="start" x="613.62" y="-141" font-family="Arial" font-size="9.00">Direct analog / resolver interface conductors</text>
<text xml:space="preserve" text-anchor="start" x="410.88" y="-126.5" font-family="Arial" font-size="9.00"> </text>
<text xml:space="preserve" text-anchor="start" x="289.75" y="-112" font-family="Arial" font-size="9.00">CN4:18:18 | SPINDLE_SPEED_SE1 | lead/wire SE1 | HOLD</text>
<text xml:space="preserve" text-anchor="start" x="538.25" y="-112" font-family="Arial" font-size="9.00"> &#160;&#160;&#160;&#160;1:RD:SPINDLE_SPEED_SE1 | HOLD &#160;&#160;&#160;</text>
<text xml:space="preserve" text-anchor="start" x="726" y="-112" font-family="Arial" font-size="9.00">7i49_P3:TBD: 23/24 (GND3/AOUT3):TBD: 23/24 (GND3/AOUT3) | spindle&#45;speed&#45;cmd | HOLD</text>
<polygon fill="#000000" stroke="none" points="287.75,-105.75 287.75,-107.75 1118.75,-107.75 1118.75,-105.75 287.75,-105.75"/>
<polygon fill="#ff0000" stroke="none" points="287.75,-103.75 287.75,-105.75 1118.75,-105.75 1118.75,-103.75 287.75,-103.75"/>
<polygon fill="#000000" stroke="none" points="287.75,-101.75 287.75,-103.75 1118.75,-103.75 1118.75,-101.75 287.75,-101.75"/>
<text xml:space="preserve" text-anchor="start" x="289.75" y="-91.5" font-family="Arial" font-size="9.00">CN4:19:19 | SPINDLE_SPEED_SE2 | lead/wire SE2 | HOLD</text>
<text xml:space="preserve" text-anchor="start" x="538.25" y="-91.5" font-family="Arial" font-size="9.00"> &#160;&#160;&#160;&#160;2:RD:SPINDLE_SPEED_SE2 | HOLD &#160;&#160;&#160;</text>
<text xml:space="preserve" text-anchor="start" x="715.5" y="-91.5" font-family="Arial" font-size="9.00">7i49_P3:TBD: 23/24 (GND3/AOUT3)_2:TBD: 23/24 (GND3/AOUT3)_2 | spindle&#45;speed&#45;cmd | HOLD</text>
<polygon fill="#000000" stroke="none" points="287.75,-85.25 287.75,-87.25 1118.75,-87.25 1118.75,-85.25 287.75,-85.25"/>
<polygon fill="#ff0000" stroke="none" points="287.75,-83.25 287.75,-85.25 1118.75,-85.25 1118.75,-83.25 287.75,-83.25"/>
<polygon fill="#000000" stroke="none" points="287.75,-81.25 287.75,-83.25 1118.75,-83.25 1118.75,-81.25 287.75,-81.25"/>
<text xml:space="preserve" text-anchor="start" x="289.75" y="-71" font-family="Arial" font-size="9.00">CN4:20:20 | SPINDLE_SPEED_SE3 | lead/wire SE3 | HOLD</text>
<text xml:space="preserve" text-anchor="start" x="538.25" y="-71" font-family="Arial" font-size="9.00"> &#160;&#160;&#160;&#160;3:RD:SPINDLE_SPEED_SE3 | HOLD &#160;&#160;&#160;</text>
<text xml:space="preserve" text-anchor="start" x="771.38" y="-71" font-family="Arial" font-size="9.00">HOLD_TERMINATION:TBD01:TBD01 | SPINDLE_SPEED_SE3 | HOLD</text>
<polygon fill="#000000" stroke="none" points="287.75,-64.75 287.75,-66.75 1118.75,-66.75 1118.75,-64.75 287.75,-64.75"/>
<polygon fill="#ff0000" stroke="none" points="287.75,-62.75 287.75,-64.75 1118.75,-64.75 1118.75,-62.75 287.75,-62.75"/>
<polygon fill="#000000" stroke="none" points="287.75,-60.75 287.75,-62.75 1118.75,-62.75 1118.75,-60.75 287.75,-60.75"/>
<text xml:space="preserve" text-anchor="start" x="410.88" y="-50.5" font-family="Arial" font-size="9.00"> </text>
<polygon fill="none" stroke="black" points="287.75,-31.75 287.75,-46.25 1118.75,-46.25 1118.75,-31.75 287.75,-31.75"/>
<text xml:space="preserve" text-anchor="start" x="657.5" y="-36" font-family="Arial" font-size="9.00">See crosswalk source.</text>
</g>
<!-- CN4&#45;&#45;DIRECT_INTERFACE -->
<g id="edge1" class="edge">
<title>CN4:e&#45;&#45;DIRECT_INTERFACE:w</title>
<path fill="none" stroke="#000000" stroke-width="2" d="M262.75,-98.5C275.75,-99.5 278.21,-103.75 287.75,-102.75"/>
<path fill="none" stroke="#ff0000" stroke-width="2" d="M262.75,-100.5C274.02,-100.5 276.48,-104.75 287.75,-104.75"/>
<path fill="none" stroke="#000000" stroke-width="2" d="M262.75,-102.5C272.29,-101.5 274.75,-105.75 287.75,-106.75"/>
</g>
<!-- CN4&#45;&#45;DIRECT_INTERFACE -->
<g id="edge2" class="edge">
<title>CN4:e&#45;&#45;DIRECT_INTERFACE:w</title>
<path fill="none" stroke="#000000" stroke-width="2" d="M262.75,-82.5C273.68,-82.51 276.46,-82.26 287.75,-82.25"/>
<path fill="none" stroke="#ff0000" stroke-width="2" d="M262.75,-84.5C273.86,-84.5 276.64,-84.25 287.75,-84.25"/>
<path fill="none" stroke="#000000" stroke-width="2" d="M262.75,-86.5C274.04,-86.49 276.82,-86.24 287.75,-86.25"/>
</g>
<!-- CN4&#45;&#45;DIRECT_INTERFACE -->
<g id="edge3" class="edge">
<title>CN4:e&#45;&#45;DIRECT_INTERFACE:w</title>
<path fill="none" stroke="#000000" stroke-width="2" d="M262.75,-66.5C272.27,-67.6 274.65,-62.85 287.75,-61.75"/>
<path fill="none" stroke="#ff0000" stroke-width="2" d="M262.75,-68.5C274.06,-68.5 276.44,-63.75 287.75,-63.75"/>
<path fill="none" stroke="#000000" stroke-width="2" d="M262.75,-70.5C275.85,-69.4 278.23,-64.65 287.75,-65.75"/>
</g>
<!-- 7i49_P3 -->
<g id="node2" class="node">
<title>7i49_P3</title>
<polygon fill="#ffffff" stroke="black" points="1547.5,-141.5 1143.75,-141.5 1143.75,-66 1547.5,-66 1547.5,-141.5"/>
<polygon fill="#a0dfff" stroke="none" points="1143.75,-127 1143.75,-141.5 1547.5,-141.5 1547.5,-127 1143.75,-127"/>
<polygon fill="none" stroke="black" points="1143.75,-127 1143.75,-141.5 1547.5,-141.5 1547.5,-127 1143.75,-127"/>
<text xml:space="preserve" text-anchor="start" x="1328.38" y="-131.25" font-family="Arial" font-size="9.00">7i49_P3</text>
<polygon fill="none" stroke="black" points="1143.75,-112.5 1143.75,-127 1547.5,-127 1547.5,-112.5 1143.75,-112.5"/>
<text xml:space="preserve" text-anchor="start" x="1329.88" y="-116.75" font-family="Arial" font-size="9.00">7i49 P3</text>
<polygon fill="none" stroke="black" points="1143.75,-96.5 1143.75,-112.5 1270,-112.5 1270,-96.5 1143.75,-96.5"/>
<text xml:space="preserve" text-anchor="start" x="1151" y="-101.5" font-family="Arial" font-size="9.00">TBD: 23/24 (GND3/AOUT3)</text>
<polygon fill="none" stroke="black" points="1270,-96.5 1270,-112.5 1514,-112.5 1514,-96.5 1270,-96.5"/>
<text xml:space="preserve" text-anchor="start" x="1277.25" y="-101.5" font-family="Arial" font-size="9.00">TBD: 23/24 (GND3/AOUT3) | spindle&#45;speed&#45;cmd | HOLD</text>
<polyline fill="none" stroke="black" points="1531.5,-112.5 1514,-112.5 1514,-96.5 1531.5,-96.5"/>
<text xml:space="preserve" text-anchor="start" x="1516" y="-101.5" font-family="Arial" font-size="9.00">RD</text>
<polyline fill="none" stroke="black" points="1531.5,-96.5 1547.5,-96.5 1547.5,-112.5 1531.5,-112.5"/>
<polygon fill="#ff0000" stroke="none" points="1535.5,-100.5 1535.5,-108.5 1543.5,-108.5 1543.5,-100.5 1535.5,-100.5"/>
<polygon fill="none" stroke="black" points="1535.5,-100.5 1535.5,-108.5 1543.5,-108.5 1543.5,-100.5 1535.5,-100.5"/>
<polygon fill="none" stroke="black" points="1143.75,-80.5 1143.75,-96.5 1270,-96.5 1270,-80.5 1143.75,-80.5"/>
<text xml:space="preserve" text-anchor="start" x="1145.75" y="-85.5" font-family="Arial" font-size="9.00">TBD: 23/24 (GND3/AOUT3)_2</text>
<polygon fill="none" stroke="black" points="1270,-80.5 1270,-96.5 1514,-96.5 1514,-80.5 1270,-80.5"/>
<text xml:space="preserve" text-anchor="start" x="1272" y="-85.5" font-family="Arial" font-size="9.00">TBD: 23/24 (GND3/AOUT3)_2 | spindle&#45;speed&#45;cmd | HOLD</text>
<polyline fill="none" stroke="black" points="1531.5,-96.5 1514,-96.5 1514,-80.5 1531.5,-80.5"/>
<text xml:space="preserve" text-anchor="start" x="1516" y="-85.5" font-family="Arial" font-size="9.00">RD</text>
<polyline fill="none" stroke="black" points="1531.5,-80.5 1547.5,-80.5 1547.5,-96.5 1531.5,-96.5"/>
<polygon fill="#ff0000" stroke="none" points="1535.5,-84.5 1535.5,-92.5 1543.5,-92.5 1543.5,-84.5 1535.5,-84.5"/>
<polygon fill="none" stroke="black" points="1535.5,-84.5 1535.5,-92.5 1543.5,-92.5 1543.5,-84.5 1535.5,-84.5"/>
<polygon fill="none" stroke="black" points="1143.75,-66 1143.75,-80.5 1547.5,-80.5 1547.5,-66 1143.75,-66"/>
<text xml:space="preserve" text-anchor="start" x="1240.62" y="-70.25" font-family="Arial" font-size="9.00">Verify endpoint numbering against the card manual.</text>
</g>
<!-- HOLD_TERMINATION -->
<g id="node3" class="node">
<title>HOLD_TERMINATION</title>
<polygon fill="#ffffff" stroke="black" points="1463.12,-59.5 1228.12,-59.5 1228.12,0 1463.12,0 1463.12,-59.5"/>
<polygon fill="#ff0000" stroke="none" points="1228.12,-45 1228.12,-59.5 1463.12,-59.5 1463.12,-45 1228.12,-45"/>
<polygon fill="none" stroke="black" points="1228.12,-45 1228.12,-59.5 1463.12,-59.5 1463.12,-45 1228.12,-45"/>
<text xml:space="preserve" text-anchor="start" x="1299.88" y="-49.25" font-family="Arial" font-size="9.00">HOLD_TERMINATION</text>
<polygon fill="none" stroke="black" points="1228.12,-30.5 1228.12,-45 1463.12,-45 1463.12,-30.5 1228.12,-30.5"/>
<text xml:space="preserve" text-anchor="start" x="1255.62" y="-34.75" font-family="Arial" font-size="9.00">Termination or electrical role not established</text>
<polygon fill="none" stroke="black" points="1228.12,-14.5 1228.12,-30.5 1260.62,-30.5 1260.62,-14.5 1228.12,-14.5"/>
<text xml:space="preserve" text-anchor="start" x="1230.12" y="-19.5" font-family="Arial" font-size="9.00">TBD01</text>
<polygon fill="none" stroke="black" points="1260.62,-14.5 1260.62,-30.5 1429.62,-30.5 1429.62,-14.5 1260.62,-14.5"/>
<text xml:space="preserve" text-anchor="start" x="1262.62" y="-19.5" font-family="Arial" font-size="9.00">TBD01 | SPINDLE_SPEED_SE3 | HOLD</text>
<polyline fill="none" stroke="black" points="1447.12,-30.5 1429.62,-30.5 1429.62,-14.5 1447.12,-14.5"/>
<text xml:space="preserve" text-anchor="start" x="1431.62" y="-19.5" font-family="Arial" font-size="9.00">RD</text>
<polyline fill="none" stroke="black" points="1447.12,-14.5 1463.12,-14.5 1463.12,-30.5 1447.12,-30.5"/>
<polygon fill="#ff0000" stroke="none" points="1451.12,-18.5 1451.12,-26.5 1459.12,-26.5 1459.12,-18.5 1451.12,-18.5"/>
<polygon fill="none" stroke="black" points="1451.12,-18.5 1451.12,-26.5 1459.12,-26.5 1459.12,-18.5 1451.12,-18.5"/>
<polygon fill="none" stroke="black" points="1228.12,0 1228.12,-14.5 1463.12,-14.5 1463.12,0 1228.12,0"/>
<text xml:space="preserve" text-anchor="start" x="1299.88" y="-4.25" font-family="Arial" font-size="9.00">See crosswalk source.</text>
</g>
<!-- DIRECT_INTERFACE&#45;&#45;7i49_P3 -->
<g id="edge4" class="edge">
<title>DIRECT_INTERFACE:e&#45;&#45;7i49_P3:w</title>
<path fill="none" stroke="#000000" stroke-width="2" d="M1118.75,-102.75C1129.68,-102.76 1132.46,-102.51 1143.75,-102.5"/>
<path fill="none" stroke="#ff0000" stroke-width="2" d="M1118.75,-104.75C1129.86,-104.75 1132.64,-104.5 1143.75,-104.5"/>
<path fill="none" stroke="#000000" stroke-width="2" d="M1118.75,-106.75C1130.04,-106.74 1132.82,-106.49 1143.75,-106.5"/>
</g>
<!-- DIRECT_INTERFACE&#45;&#45;7i49_P3 -->
<g id="edge5" class="edge">
<title>DIRECT_INTERFACE:e&#45;&#45;7i49_P3:w</title>
<path fill="none" stroke="#000000" stroke-width="2" d="M1118.75,-82.25C1131.75,-83.25 1134.21,-87.5 1143.75,-86.5"/>
<path fill="none" stroke="#ff0000" stroke-width="2" d="M1118.75,-84.25C1130.02,-84.25 1132.48,-88.5 1143.75,-88.5"/>
<path fill="none" stroke="#000000" stroke-width="2" d="M1118.75,-86.25C1128.29,-85.25 1130.75,-89.5 1143.75,-90.5"/>
</g>
<!-- DIRECT_INTERFACE&#45;&#45;HOLD_TERMINATION -->
<g id="edge6" class="edge">
<title>DIRECT_INTERFACE:e&#45;&#45;HOLD_TERMINATION:w</title>
<path fill="none" stroke="#000000" stroke-width="2" d="M1118.75,-61.75C1168.3,-63.5 1173.6,-22.25 1227.12,-20.5"/>
<path fill="none" stroke="#ff0000" stroke-width="2" d="M1118.75,-63.75C1170.29,-63.75 1175.59,-22.5 1227.12,-22.5"/>
<path fill="none" stroke="#000000" stroke-width="2" d="M1118.75,-65.75C1172.27,-64 1177.57,-22.75 1227.12,-24.5"/>
</g>
</g>
</svg>
