<?xml version="1.0" encoding="UTF-8" standalone="no"?>
<!DOCTYPE svg PUBLIC "-//W3C//DTD SVG 1.1//EN"
 "http://www.w3.org/Graphics/SVG/1.1/DTD/svg11.dtd">
<!-- Generated by graphviz version 15.1.0 (20260618.0150)
 -->
<!-- Pages: 1 -->
<svg width="1938pt" height="108pt"
 viewBox="0.00 0.00 1938.00 108.00" xmlns="http://www.w3.org/2000/svg" xmlns:xlink="http://www.w3.org/1999/xlink">
<g id="graph0" class="graph" transform="scale(1 1) rotate(0) translate(0 108)">
<polygon fill="#ffffff" stroke="none" points="0,0 0,-108 1937.75,-108 1937.75,0 0,0"/>
<!-- CN5 -->
<g id="node1" class="node">
<title>CN5</title>
<polygon fill="#ffffff" stroke="black" points="214,-84.25 0,-84.25 0,-24.75 214,-24.75 214,-84.25"/>
<polygon fill="#a0dfff" stroke="none" points="0,-69.75 0,-84.25 214,-84.25 214,-69.75 0,-69.75"/>
<polygon fill="none" stroke="black" points="0,-69.75 0,-84.25 214,-84.25 214,-69.75 0,-69.75"/>
<text xml:space="preserve" text-anchor="start" x="97.62" y="-74" font-family="Arial" font-size="9.00">CN5</text>
<polygon fill="none" stroke="black" points="0,-55.25 0,-69.75 214,-69.75 214,-55.25 0,-55.25"/>
<text xml:space="preserve" text-anchor="start" x="28.25" y="-59.5" font-family="Arial" font-size="9.00">BBIA&#45;1 CN5 machine&#45;facing connector</text>
<polygon fill="none" stroke="black" points="0,-39.25 0,-55.25 162.06,-55.25 162.06,-39.25 0,-39.25"/>
<text xml:space="preserve" text-anchor="start" x="3.78" y="-44.25" font-family="Arial" font-size="9.00">144 | THERMAL_ALARM_CHAIN | FV</text>
<polyline fill="none" stroke="black" points="181.62,-55.25 162.06,-55.25 162.06,-39.25 181.62,-39.25"/>
<text xml:space="preserve" text-anchor="start" x="165.84" y="-44.25" font-family="Arial" font-size="9.00">YE</text>
<polyline fill="none" stroke="black" points="181.62,-39.25 201.19,-39.25 201.19,-55.25 181.62,-55.25"/>
<polygon fill="#ffff00" stroke="none" points="187.41,-43.25 187.41,-51.25 195.41,-51.25 195.41,-43.25 187.41,-43.25"/>
<polygon fill="none" stroke="black" points="187.41,-43.25 187.41,-51.25 195.41,-51.25 195.41,-43.25 187.41,-43.25"/>
<polygon fill="none" stroke="black" points="201.19,-39.25 201.19,-55.25 214,-55.25 214,-39.25 201.19,-39.25"/>
<text xml:space="preserve" text-anchor="start" x="204.97" y="-44.25" font-family="Arial" font-size="9.00">1</text>
<polygon fill="none" stroke="black" points="0,-24.75 0,-39.25 214,-39.25 214,-24.75 0,-24.75"/>
<text xml:space="preserve" text-anchor="start" x="2" y="-29" font-family="Arial" font-size="9.00">Verify endpoint numbering against the card manual.</text>
</g>
<!-- OEM_CONDUCTORS -->
<g id="node4" class="node">
<title>OEM_CONDUCTORS</title>
<polygon fill="#ffffff" stroke="black" points="823.25,-108 239,-108 239,-15 823.25,-15 823.25,-108"/>
<polygon fill="none" stroke="black" points="239,-93.5 239,-108 823.25,-108 823.25,-93.5 239,-93.5"/>
<text xml:space="preserve" text-anchor="start" x="485.75" y="-97.75" font-family="Arial" font-size="9.00">OEM_CONDUCTORS</text>
<polygon fill="none" stroke="black" points="239,-79 239,-93.5 823.25,-93.5 823.25,-79 239,-79"/>
<text xml:space="preserve" text-anchor="start" x="461.38" y="-83.25" font-family="Arial" font-size="9.00">Existing OEM conductor segments</text>
<text xml:space="preserve" text-anchor="start" x="331.38" y="-68.75" font-family="Arial" font-size="9.00"> </text>
<text xml:space="preserve" text-anchor="start" x="241" y="-54.25" font-family="Arial" font-size="9.00">CN5:1:144 | THERMAL_ALARM_CHAIN | FV</text>
<text xml:space="preserve" text-anchor="start" x="428" y="-54.25" font-family="Arial" font-size="9.00"> &#160;&#160;&#160;&#160;1:YE:144 | THERMAL_ALARM_CHAIN &#160;&#160;&#160;</text>
<text xml:space="preserve" text-anchor="start" x="610.5" y="-54.25" font-family="Arial" font-size="9.00">IR_BOUNDARY:F01:F | THERMAL_ALARM_CHAIN</text>
<polygon fill="#000000" stroke="none" points="239,-48 239,-50 823.25,-50 823.25,-48 239,-48"/>
<polygon fill="#ffff00" stroke="none" points="239,-46 239,-48 823.25,-48 823.25,-46 239,-46"/>
<polygon fill="#000000" stroke="none" points="239,-44 239,-46 823.25,-46 823.25,-44 239,-44"/>
<text xml:space="preserve" text-anchor="start" x="331.38" y="-33.75" font-family="Arial" font-size="9.00"> </text>
<polygon fill="none" stroke="black" points="239,-15 239,-29.5 823.25,-29.5 823.25,-15 239,-15"/>
<text xml:space="preserve" text-anchor="start" x="485.38" y="-19.25" font-family="Arial" font-size="9.00">See crosswalk source.</text>
</g>
<!-- CN5&#45;&#45;OEM_CONDUCTORS -->
<g id="edge1" class="edge">
<title>CN5:e&#45;&#45;OEM_CONDUCTORS:w</title>
<path fill="none" stroke="#000000" stroke-width="2" d="M214,-45.25C224.93,-45.26 227.71,-45.01 239,-45"/>
<path fill="none" stroke="#ffff00" stroke-width="2" d="M214,-47.25C225.11,-47.25 227.89,-47 239,-47"/>
<path fill="none" stroke="#000000" stroke-width="2" d="M214,-49.25C225.29,-49.24 228.07,-48.99 239,-49"/>
</g>
<!-- IR_BOUNDARY -->
<g id="node2" class="node">
<title>IR_BOUNDARY</title>
<polygon fill="#ffffff" stroke="black" points="1056.5,-84.25 848.25,-84.25 848.25,-8.75 1056.5,-8.75 1056.5,-84.25"/>
<polygon fill="#ffff00" stroke="none" points="848.25,-69.75 848.25,-84.25 1056.5,-84.25 1056.5,-69.75 848.25,-69.75"/>
<polygon fill="none" stroke="black" points="848.25,-69.75 848.25,-84.25 1056.5,-84.25 1056.5,-69.75 848.25,-69.75"/>
<text xml:space="preserve" text-anchor="start" x="919.75" y="-74" font-family="Arial" font-size="9.00">IR_BOUNDARY</text>
<polygon fill="none" stroke="black" points="848.25,-55.25 848.25,-69.75 1056.5,-69.75 1056.5,-55.25 848.25,-55.25"/>
<text xml:space="preserve" text-anchor="start" x="877" y="-59.5" font-family="Arial" font-size="9.00">Required interposing&#45;relay boundary</text>
<polygon fill="none" stroke="black" points="848.25,-39.25 848.25,-55.25 870.25,-55.25 870.25,-39.25 848.25,-39.25"/>
<text xml:space="preserve" text-anchor="start" x="851.38" y="-44.25" font-family="Arial" font-size="9.00">F01</text>
<polygon fill="none" stroke="black" points="870.25,-39.25 870.25,-55.25 1002.5,-55.25 1002.5,-39.25 870.25,-39.25"/>
<text xml:space="preserve" text-anchor="start" x="873.38" y="-44.25" font-family="Arial" font-size="9.00">F | THERMAL_ALARM_CHAIN</text>
<polyline fill="none" stroke="black" points="1018.5,-55.25 1002.5,-55.25 1002.5,-39.25 1018.5,-39.25"/>
<text xml:space="preserve" text-anchor="start" x="1004.5" y="-44.25" font-family="Arial" font-size="9.00">YE</text>
<polyline fill="none" stroke="black" points="1018.5,-39.25 1034.5,-39.25 1034.5,-55.25 1018.5,-55.25"/>
<polygon fill="#ffff00" stroke="none" points="1022.5,-43.25 1022.5,-51.25 1030.5,-51.25 1030.5,-43.25 1022.5,-43.25"/>
<polygon fill="none" stroke="black" points="1022.5,-43.25 1022.5,-51.25 1030.5,-51.25 1030.5,-43.25 1022.5,-43.25"/>
<polygon fill="none" stroke="black" points="1034.5,-39.25 1034.5,-55.25 1056.5,-55.25 1056.5,-39.25 1034.5,-39.25"/>
<text xml:space="preserve" text-anchor="start" x="1037.62" y="-44.25" font-family="Arial" font-size="9.00">F01</text>
<polygon fill="none" stroke="black" points="848.25,-23.25 848.25,-39.25 870.25,-39.25 870.25,-23.25 848.25,-23.25"/>
<text xml:space="preserve" text-anchor="start" x="850.25" y="-28.25" font-family="Arial" font-size="9.00">M01</text>
<polygon fill="none" stroke="black" points="870.25,-23.25 870.25,-39.25 1002.5,-39.25 1002.5,-23.25 870.25,-23.25"/>
<text xml:space="preserve" text-anchor="start" x="872.25" y="-28.25" font-family="Arial" font-size="9.00">M | THERMAL_ALARM_CHAIN</text>
<polyline fill="none" stroke="black" points="1018.5,-39.25 1002.5,-39.25 1002.5,-23.25 1018.5,-23.25"/>
<text xml:space="preserve" text-anchor="start" x="1004.5" y="-28.25" font-family="Arial" font-size="9.00">YE</text>
<polyline fill="none" stroke="black" points="1018.5,-23.25 1034.5,-23.25 1034.5,-39.25 1018.5,-39.25"/>
<polygon fill="#ffff00" stroke="none" points="1022.5,-27.25 1022.5,-35.25 1030.5,-35.25 1030.5,-27.25 1022.5,-27.25"/>
<polygon fill="none" stroke="black" points="1022.5,-27.25 1022.5,-35.25 1030.5,-35.25 1030.5,-27.25 1022.5,-27.25"/>
<polygon fill="none" stroke="black" points="1034.5,-23.25 1034.5,-39.25 1056.5,-39.25 1056.5,-23.25 1034.5,-23.25"/>
<text xml:space="preserve" text-anchor="start" x="1036.5" y="-28.25" font-family="Arial" font-size="9.00">M01</text>
<polygon fill="none" stroke="black" points="848.25,-8.75 848.25,-23.25 1056.5,-23.25 1056.5,-8.75 848.25,-8.75"/>
<text xml:space="preserve" text-anchor="start" x="859" y="-13" font-family="Arial" font-size="9.00">Logical boundary placeholder; see crosswalk.</text>
</g>
<!-- NEW_CONTROL_WIRING -->
<g id="node5" class="node">
<title>NEW_CONTROL_WIRING</title>
<polygon fill="#ffffff" stroke="black" points="1698.75,-93 1081.5,-93 1081.5,0 1698.75,0 1698.75,-93"/>
<polygon fill="none" stroke="black" points="1081.5,-78.5 1081.5,-93 1698.75,-93 1698.75,-78.5 1081.5,-78.5"/>
<text xml:space="preserve" text-anchor="start" x="1335.75" y="-82.75" font-family="Arial" font-size="9.00">NEW_CONTROL_WIRING</text>
<polygon fill="none" stroke="black" points="1081.5,-64 1081.5,-78.5 1698.75,-78.5 1698.75,-64 1081.5,-64"/>
<text xml:space="preserve" text-anchor="start" x="1332" y="-68.25" font-family="Arial" font-size="9.00">New control&#45;side conductors</text>
<text xml:space="preserve" text-anchor="start" x="1190" y="-53.75" font-family="Arial" font-size="9.00"> </text>
<text xml:space="preserve" text-anchor="start" x="1083.5" y="-39.25" font-family="Arial" font-size="9.00">IR_BOUNDARY:M01:M | THERMAL_ALARM_CHAIN</text>
<text xml:space="preserve" text-anchor="start" x="1302.75" y="-39.25" font-family="Arial" font-size="9.00"> &#160;&#160;&#160;&#160;1:YE:THERMAL_ALARM_CHAIN | thermal&#45;alarm &#160;&#160;&#160;</text>
<text xml:space="preserve" text-anchor="start" x="1526.5" y="-39.25" font-family="Arial" font-size="9.00">7i84U&#45;A_TB3:IN8:IN8 | thermal&#45;alarm | FV</text>
<polygon fill="#000000" stroke="none" points="1081.5,-33 1081.5,-35 1698.75,-35 1698.75,-33 1081.5,-33"/>
<polygon fill="#ffff00" stroke="none" points="1081.5,-31 1081.5,-33 1698.75,-33 1698.75,-31 1081.5,-31"/>
<polygon fill="#000000" stroke="none" points="1081.5,-29 1081.5,-31 1698.75,-31 1698.75,-29 1081.5,-29"/>
<text xml:space="preserve" text-anchor="start" x="1190" y="-18.75" font-family="Arial" font-size="9.00"> </text>
<polygon fill="none" stroke="black" points="1081.5,0 1081.5,-14.5 1698.75,-14.5 1698.75,0 1081.5,0"/>
<text xml:space="preserve" text-anchor="start" x="1344.38" y="-4.25" font-family="Arial" font-size="9.00">See crosswalk source.</text>
</g>
<!-- IR_BOUNDARY&#45;&#45;NEW_CONTROL_WIRING -->
<g id="edge3" class="edge">
<title>IR_BOUNDARY:e&#45;&#45;NEW_CONTROL_WIRING:w</title>
<path fill="none" stroke="#000000" stroke-width="2" d="M1056.5,-29.25C1068.14,-29.32 1070.91,-30.07 1081.5,-30"/>
<path fill="none" stroke="#ffff00" stroke-width="2" d="M1056.5,-31.25C1067.62,-31.25 1070.38,-32 1081.5,-32"/>
<path fill="none" stroke="#000000" stroke-width="2" d="M1056.5,-33.25C1067.09,-33.18 1069.86,-33.93 1081.5,-34"/>
</g>
<!-- 7i84U&#45;A_TB3 -->
<g id="node3" class="node">
<title>7i84U&#45;A_TB3</title>
<polygon fill="#ffffff" stroke="black" points="1937.75,-69.25 1723.75,-69.25 1723.75,-9.75 1937.75,-9.75 1937.75,-69.25"/>
<polygon fill="#a0dfff" stroke="none" points="1723.75,-54.75 1723.75,-69.25 1937.75,-69.25 1937.75,-54.75 1723.75,-54.75"/>
<polygon fill="none" stroke="black" points="1723.75,-54.75 1723.75,-69.25 1937.75,-69.25 1937.75,-54.75 1723.75,-54.75"/>
<text xml:space="preserve" text-anchor="start" x="1803" y="-59" font-family="Arial" font-size="9.00">7i84U&#45;A_TB3</text>
<polygon fill="none" stroke="black" points="1723.75,-40.25 1723.75,-54.75 1937.75,-54.75 1937.75,-40.25 1723.75,-40.25"/>
<text xml:space="preserve" text-anchor="start" x="1804.88" y="-44.5" font-family="Arial" font-size="9.00">7i84U&#45;A TB3</text>
<polygon fill="none" stroke="black" points="1723.75,-24.25 1723.75,-40.25 1757.94,-40.25 1757.94,-24.25 1723.75,-24.25"/>
<text xml:space="preserve" text-anchor="start" x="1733.72" y="-29.25" font-family="Arial" font-size="9.00">IN8</text>
<polygon fill="none" stroke="black" points="1757.94,-24.25 1757.94,-40.25 1873.88,-40.25 1873.88,-24.25 1757.94,-24.25"/>
<text xml:space="preserve" text-anchor="start" x="1767.91" y="-29.25" font-family="Arial" font-size="9.00">IN8 | thermal&#45;alarm | FV</text>
<polyline fill="none" stroke="black" points="1905.81,-40.25 1873.88,-40.25 1873.88,-24.25 1905.81,-24.25"/>
<text xml:space="preserve" text-anchor="start" x="1883.84" y="-29.25" font-family="Arial" font-size="9.00">YE</text>
<polyline fill="none" stroke="black" points="1905.81,-24.25 1937.75,-24.25 1937.75,-40.25 1905.81,-40.25"/>
<polygon fill="#ffff00" stroke="none" points="1917.78,-28.25 1917.78,-36.25 1925.78,-36.25 1925.78,-28.25 1917.78,-28.25"/>
<polygon fill="none" stroke="black" points="1917.78,-28.25 1917.78,-36.25 1925.78,-36.25 1925.78,-28.25 1917.78,-28.25"/>
<polygon fill="none" stroke="black" points="1723.75,-9.75 1723.75,-24.25 1937.75,-24.25 1937.75,-9.75 1723.75,-9.75"/>
<text xml:space="preserve" text-anchor="start" x="1725.75" y="-14" font-family="Arial" font-size="9.00">Verify endpoint numbering against the card manual.</text>
</g>
<!-- OEM_CONDUCTORS&#45;&#45;IR_BOUNDARY -->
<g id="edge2" class="edge">
<title>OEM_CONDUCTORS:e&#45;&#45;IR_BOUNDARY:w</title>
<path fill="none" stroke="#000000" stroke-width="2" d="M823.25,-45C834.54,-45.01 837.32,-45.26 848.25,-45.25"/>
<path fill="none" stroke="#ffff00" stroke-width="2" d="M823.25,-47C834.36,-47 837.14,-47.25 848.25,-47.25"/>
<path fill="none" stroke="#000000" stroke-width="2" d="M823.25,-49C834.18,-48.99 836.96,-49.24 848.25,-49.25"/>
</g>
<!-- NEW_CONTROL_WIRING&#45;&#45;7i84U&#45;A_TB3 -->
<g id="edge4" class="edge">
<title>NEW_CONTROL_WIRING:e&#45;&#45;7i84U&#45;A_TB3:w</title>
<path fill="none" stroke="#000000" stroke-width="2" d="M1698.75,-30C1710.04,-30.01 1712.82,-30.26 1723.75,-30.25"/>
<path fill="none" stroke="#ffff00" stroke-width="2" d="M1698.75,-32C1709.86,-32 1712.64,-32.25 1723.75,-32.25"/>
<path fill="none" stroke="#000000" stroke-width="2" d="M1698.75,-34C1709.68,-33.99 1712.46,-34.24 1723.75,-34.25"/>
</g>
</g>
</svg>
